<?xml version="1.0" encoding="utf-8"?><svg xmlns="http://www.w3.org/2000/svg" xmlns:xlink="http://www.w3.org/1999/xlink"><symbol viewBox="0 0 101 12" id="arr" xmlns="http://www.w3.org/2000/svg"><path d="M100.53 6.53a.75.75 0 0 0 0-1.06L95.757.697a.75.75 0 0 0-1.06 1.06L98.939 6l-4.242 4.243a.75.75 0 0 0 1.06 1.06l4.773-4.773zM0 6.75h100v-1.5H0v1.5z"/><defs><linearGradient id="aapaint0_linear" x1="66.5" y1="6" x2="67" y2="6" gradientUnits="userSpaceOnUse"><stop stop-color="#D8BB54"/><stop offset=".503" stop-color="#D8BB54"/><stop offset="1" stop-color="#fff"/></linearGradient></defs></symbol><symbol viewBox="0 0 13 12" id="arr_flats" xmlns="http://www.w3.org/2000/svg"><path d="M7.002 1L2 6.002l5.002 5.002"/></symbol><symbol viewBox="0 0 11 11" id="arr_list" xmlns="http://www.w3.org/2000/svg"><path d="M1 5l4.243 4.243L9.485 5"/></symbol><symbol viewBox="0 0 27 8" id="arr_sm" xmlns="http://www.w3.org/2000/svg"><path d="M.646 4.354a.5.5 0 0 1 0-.708L3.828.464a.5.5 0 1 1 .708.708L1.707 4l2.829 2.828a.5.5 0 1 1-.708.708L.646 4.354zM27 4.5H1v-1h26v1z"/></symbol><symbol viewBox="25 25 129 129" id="btn-play" xmlns="http://www.w3.org/2000/svg"><g filter="url(#aefilter0_d)"><circle cx="132" cy="128" r="123"/><path d="M192 128l-89.25 66.684V61.316L192 128z"/></g><defs><filter id="aefilter0_d" x="0" y="0" width="264" height="265" filterUnits="userSpaceOnUse" color-interpolation-filters="sRGB"><feFlood flood-opacity="0" result="BackgroundImageFix"/><feColorMatrix in="SourceAlpha" values="0 0 0 0 0 0 0 0 0 0 0 0 0 0 0 0 0 0 127 0"/><feOffset dy="5"/><feGaussianBlur stdDeviation="2"/><feColorMatrix values="0 0 0 0 0 0 0 0 0 0 0 0 0 0 0 0 0 0 0.5 0"/><feBlend in2="BackgroundImageFix" result="effect1_dropShadow"/><feBlend in="SourceGraphic" in2="effect1_dropShadow" result="shape"/></filter></defs></symbol><symbol viewBox="0 0 63 63" id="build" xmlns="http://www.w3.org/2000/svg"><path d="M61.95 60.9h-4.265c.045-.345.065-.697.065-1.05a7.304 7.304 0 0 0-4.2-6.655V17.85c0-.63-.42-1.05-1.05-1.05H36.75V1.05C36.75.42 36.33 0 35.7 0H7.35C6.72 0 6.3.42 6.3 1.05V60.9H1.05c-.63 0-1.05.42-1.05 1.05C0 62.58.42 63 1.05 63h60.9c.63 0 1.05-.42 1.05-1.05 0-.63-.42-1.05-1.05-1.05zm-10.5-8.326a7.578 7.578 0 0 0-1.05-.074c-.793 0-1.57.135-2.305.387-.183-.244-.478-.387-.845-.387-.63 0-1.05.42-1.05 1.05v.322a7.356 7.356 0 0 0-1.104.977 6.828 6.828 0 0 0-.156.17c-.87-1.087-1.99-1.874-3.258-2.257a1.06 1.06 0 0 0-.732-.262 1.24 1.24 0 0 0-.328.042 6.221 6.221 0 0 0-.722-.042c-.658 0-1.399.085-2 .329a6.374 6.374 0 0 0-.22.079 6.545 6.545 0 0 0-2.47-1.249l-.028-.007a6.57 6.57 0 0 0-.427-.094l-.084-.016a6.438 6.438 0 0 0-.484-.064l-.139-.01c-.05-.004-.099-.008-.148-.01a6.23 6.23 0 0 0-.53-.004l-.15.008-.06.003a6.17 6.17 0 0 0-2.71.812V18.9h21v33.674zM8.4 2.1h26.25v14.7H29.4c-.63 0-1.05.42-1.05 1.05v32.655a7.603 7.603 0 0 0-2.008-1.438l-.072-.036a7.27 7.27 0 0 0-2.416-.69l-.036-.004a7.178 7.178 0 0 0-.299-.024l-.08-.004a7.124 7.124 0 0 0-4.54 1.369v-.328c.001-.63-.419-1.05-1.049-1.05-.63 0-1.05.42-1.05 1.05v2.1c0 .158.026.302.075.43a7.568 7.568 0 0 0-1.02 2.825A7.132 7.132 0 0 0 12.6 55.93v-.279c0-.63-.42-1.05-1.05-1.05-.63 0-1.05.42-1.05 1.05v2.1c0 .123.017.237.047.342A7.323 7.323 0 0 0 9.526 60.9H8.4V2.1zm7.922 54.622l.063-.005a5.394 5.394 0 0 1 .415-.017c.63 0 1.05-.42 1.05-1.05 0-2.94 2.31-5.25 5.25-5.25 2.625 0 4.83 1.89 5.145 4.515a1.139 1.139 0 0 0 .515.703l.049.029a1.09 1.09 0 0 0 .276.108c.063.02.134.029.209.026.345.005.666-.183.841-.446l.105-.105c.84-1.05 1.995-1.68 3.36-1.68.71 0 1.418.199 2.054.57-1.253 1.178-1.963 2.713-2.045 4.356a6.174 6.174 0 0 0 .353 2.424H11.655c.491-2.26 2.363-3.969 4.667-4.178zM36.441 60.9c-.401-.678-.636-1.48-.636-2.205 0-1.161.458-2.207 1.245-2.972.15-.14.31-.268.48-.384.164 0 .329-.033.48-.11a4.13 4.13 0 0 1 5.88 2.206c.105.315.42.63.945.63.1 0 .21-.032.32-.088.264-.043.472-.237.625-.542a4.83 4.83 0 0 1 1.804-2.039.965.965 0 0 0 .42-.239A5.325 5.325 0 0 1 50.4 54.6c2.94 0 5.25 2.31 5.25 5.25 0 .315 0 .735-.105 1.05H36.441z"/><path d="M34.651 27.3c-.63 0-1.05.42-1.05 1.05v2.1c0 .63.42 1.05 1.05 1.05.63 0 1.05-.42 1.05-1.05v-2.1c0-.63-.42-1.05-1.05-1.05zm0 18.9c-.63 0-1.05.42-1.05 1.05v2.1c0 .63.42 1.05 1.05 1.05.63 0 1.05-.42 1.05-1.05v-2.1c0-.63-.42-1.05-1.05-1.05zm0-12.6c-.63 0-1.05.42-1.05 1.05v2.1c0 .63.42 1.05 1.05 1.05.63 0 1.05-.42 1.05-1.05v-2.1c0-.63-.42-1.05-1.05-1.05zm0 6.3c-.63 0-1.05.42-1.05 1.05v2.1c0 .63.42 1.05 1.05 1.05.63 0 1.05-.42 1.05-1.05v-2.1c0-.63-.42-1.05-1.05-1.05zm0-18.9c-.63 0-1.05.42-1.05 1.05v2.1c0 .63.42 1.05 1.05 1.05.63 0 1.05-.42 1.05-1.05v-2.1c0-.63-.42-1.05-1.05-1.05zm6.297 10.5c.63 0 1.05-.42 1.05-1.05v-2.1c0-.63-.42-1.05-1.05-1.05-.63 0-1.05.42-1.05 1.05v2.1c0 .63.42 1.05 1.05 1.05zm0-6.3c.63 0 1.05-.42 1.05-1.05v-2.1c0-.63-.42-1.05-1.05-1.05-.63 0-1.05.42-1.05 1.05v2.1c0 .63.42 1.05 1.05 1.05zm0 12.6c.63 0 1.05-.42 1.05-1.05v-2.1c0-.63-.42-1.05-1.05-1.05-.63 0-1.05.42-1.05 1.05v2.1c0 .63.42 1.05 1.05 1.05zm0 6.3c.63 0 1.05-.42 1.05-1.05v-2.1c0-.63-.42-1.05-1.05-1.05-.63 0-1.05.42-1.05 1.05v2.1c0 .63.42 1.05 1.05 1.05zm0 6.3c.63 0 1.05-.42 1.05-1.05v-2.1c0-.63-.42-1.05-1.05-1.05-.63 0-1.05.42-1.05 1.05v2.1c0 .63.42 1.05 1.05 1.05zm6.302-12.6c.63 0 1.05-.42 1.05-1.05v-2.1c0-.63-.42-1.05-1.05-1.05-.63 0-1.05.42-1.05 1.05v2.1c0 .63.42 1.05 1.05 1.05zm0-6.3c.63 0 1.05-.42 1.05-1.05v-2.1c0-.63-.42-1.05-1.05-1.05-.63 0-1.05.42-1.05 1.05v2.1c0 .63.42 1.05 1.05 1.05zm0 18.9c.63 0 1.05-.42 1.05-1.05v-2.1c0-.63-.42-1.05-1.05-1.05-.63 0-1.05.42-1.05 1.05v2.1c0 .63.42 1.05 1.05 1.05zm0-6.3c.63 0 1.05-.42 1.05-1.05v-2.1c0-.63-.42-1.05-1.05-1.05-.63 0-1.05.42-1.05 1.05v2.1c0 .63.42 1.05 1.05 1.05zm0-18.9c.63 0 1.05-.42 1.05-1.05v-2.1c0-.63-.42-1.05-1.05-1.05-.63 0-1.05.42-1.05 1.05v2.1c0 .63.42 1.05 1.05 1.05zM11.552 39.9c.63 0 1.05-.42 1.05-1.05v-2.1c0-.63-.42-1.05-1.05-1.05-.63 0-1.05.42-1.05 1.05v2.1c0 .63.42 1.05 1.05 1.05zm0 6.3c.63 0 1.05-.42 1.05-1.05v-2.1c0-.63-.42-1.05-1.05-1.05-.63 0-1.05.42-1.05 1.05v2.1c0 .63.42 1.05 1.05 1.05zm0 6.3c.63 0 1.05-.42 1.05-1.05v-2.1c0-.63-.42-1.05-1.05-1.05-.63 0-1.05.42-1.05 1.05v2.1c0 .63.42 1.05 1.05 1.05zm0-44.1c.63 0 1.05-.42 1.05-1.05v-2.1c0-.63-.42-1.05-1.05-1.05-.63 0-1.05.42-1.05 1.05v2.1c0 .63.42 1.05 1.05 1.05zm0 6.3c.63 0 1.05-.42 1.05-1.05v-2.1c0-.63-.42-1.05-1.05-1.05-.63 0-1.05.42-1.05 1.05v2.1c0 .63.42 1.05 1.05 1.05zm0 6.3c.63 0 1.05-.42 1.05-1.05v-2.1c0-.63-.42-1.05-1.05-1.05-.63 0-1.05.42-1.05 1.05v2.1c0 .63.42 1.05 1.05 1.05zm0 6.3c.63 0 1.05-.42 1.05-1.05v-2.1c0-.63-.42-1.05-1.05-1.05-.63 0-1.05.42-1.05 1.05v2.1c0 .63.42 1.05 1.05 1.05zm0 6.3c.63 0 1.05-.42 1.05-1.05v-2.1c0-.63-.42-1.05-1.05-1.05-.63 0-1.05.42-1.05 1.05v2.1c0 .63.42 1.05 1.05 1.05zm6.297-18.9c.63 0 1.05-.42 1.05-1.05v-2.1c0-.63-.42-1.05-1.05-1.05-.63 0-1.05.42-1.05 1.05v2.1c0 .63.42 1.05 1.05 1.05zm0-6.3c.63 0 1.05-.42 1.05-1.05v-2.1c0-.63-.42-1.05-1.05-1.05-.63 0-1.05.42-1.05 1.05v2.1c0 .63.42 1.05 1.05 1.05zm0 18.9c.63 0 1.05-.42 1.05-1.05v-2.1c0-.63-.42-1.05-1.05-1.05-.63 0-1.05.42-1.05 1.05v2.1c0 .63.42 1.05 1.05 1.05zm0-6.3c.63 0 1.05-.42 1.05-1.05v-2.1c0-.63-.42-1.05-1.05-1.05-.63 0-1.05.42-1.05 1.05v2.1c0 .63.42 1.05 1.05 1.05zm0 12.6c.63 0 1.05-.42 1.05-1.05v-2.1c0-.63-.42-1.05-1.05-1.05-.63 0-1.05.42-1.05 1.05v2.1c0 .63.42 1.05 1.05 1.05zm0 6.3c.63 0 1.05-.42 1.05-1.05v-2.1c0-.63-.42-1.05-1.05-1.05-.63 0-1.05.42-1.05 1.05v2.1c0 .63.42 1.05 1.05 1.05zm0 6.3c.63 0 1.05-.42 1.05-1.05v-2.1c0-.63-.42-1.05-1.05-1.05-.63 0-1.05.42-1.05 1.05v2.1c0 .63.42 1.05 1.05 1.05zM24.15 21c.63 0 1.05-.42 1.05-1.05v-2.1c0-.63-.42-1.05-1.05-1.05-.63 0-1.05.42-1.05 1.05v2.1c0 .63.42 1.05 1.05 1.05zm0-6.3c.63 0 1.05-.42 1.05-1.05v-2.1c0-.63-.42-1.05-1.05-1.05-.63 0-1.05.42-1.05 1.05v2.1c0 .63.42 1.05 1.05 1.05zm0-6.3c.63 0 1.05-.42 1.05-1.05v-2.1c0-.63-.42-1.05-1.05-1.05-.63 0-1.05.42-1.05 1.05v2.1c0 .63.42 1.05 1.05 1.05zm0 37.8c.63 0 1.05-.42 1.05-1.05v-2.1c0-.63-.42-1.05-1.05-1.05-.63 0-1.05.42-1.05 1.05v2.1c0 .63.42 1.05 1.05 1.05zm0-6.3c.63 0 1.05-.42 1.05-1.05v-2.1c0-.63-.42-1.05-1.05-1.05-.63 0-1.05.42-1.05 1.05v2.1c0 .63.42 1.05 1.05 1.05zm0-6.3c.63 0 1.05-.42 1.05-1.05v-2.1c0-.63-.42-1.05-1.05-1.05-.63 0-1.05.42-1.05 1.05v2.1c0 .63.42 1.05 1.05 1.05zm0-6.3c.63 0 1.05-.42 1.05-1.05v-2.1c0-.63-.42-1.05-1.05-1.05-.63 0-1.05.42-1.05 1.05v2.1c0 .63.42 1.05 1.05 1.05zm6.3-12.6c.63 0 1.05-.42 1.05-1.05v-2.1c0-.63-.42-1.05-1.05-1.05-.63 0-1.05.42-1.05 1.05v2.1c0 .63.42 1.05 1.05 1.05zm0-6.3c.63 0 1.05-.42 1.05-1.05v-2.1c0-.63-.42-1.05-1.05-1.05-.63 0-1.05.42-1.05 1.05v2.1c0 .63.42 1.05 1.05 1.05z"/></symbol><symbol viewBox="0 0 24 24" id="bus" xmlns="http://www.w3.org/2000/svg"><path clip-rule="evenodd" d="M13.845 18.313l4.062-10.959a1.003 1.003 0 0 0-1.289-1.289L5.654 10.13c-.924.343-.851 1.673.104 1.913l4.94 1.241 1.233 4.924c.24.956 1.571 1.029 1.914.105z"/></symbol><symbol viewBox="0 0 19 19" id="date" xmlns="http://www.w3.org/2000/svg"><path d="M16.823 19H2.177A2.179 2.179 0 0 1 0 16.823V3.76c0-1.2.976-2.176 2.177-2.176h14.646c1.2 0 2.177.975 2.177 2.176v13.063A2.179 2.179 0 0 1 16.823 19zM2.177 2.771a.99.99 0 0 0-.99.99v13.062c0 .546.445.99.99.99h14.646c.545 0 .99-.444.99-.99V3.76a.99.99 0 0 0-.99-.989H2.177z"/><path d="M18.406 7.521H.594a.594.594 0 0 1 0-1.188h17.812a.594.594 0 0 1 0 1.188zM4.552 4.75a.594.594 0 0 1-.594-.594V.594a.594.594 0 0 1 1.187 0v3.562a.594.594 0 0 1-.593.594zm9.896 0a.594.594 0 0 1-.593-.594V.594a.594.594 0 0 1 1.187 0v3.562a.594.594 0 0 1-.594.594z"/></symbol><symbol viewBox="0 0 62 57" id="department" xmlns="http://www.w3.org/2000/svg"><path d="M60.931 26.526H47.259v-2.621a1.06 1.06 0 0 0-.545-.923L32.069 14.81v-4.16h2.897v1.581c0 .586.478 1.062 1.069 1.062h8.733a1.065 1.065 0 0 0 1.005-1.422l-.876-2.473.887-2.42a1.06 1.06 0 0 0-1.005-1.422h-3.977V4.017c0-.586-.478-1.061-1.069-1.061H32.07V1.661c0-.586-.479-1.06-1.069-1.06s-1.069.474-1.069 1.06v13.15l-14.645 8.16a1.06 1.06 0 0 0-.545.923v2.622H1.069c-.59 0-1.069.475-1.069 1.06V55.34c0 .586.479 1.061 1.069 1.061h59.862c.59 0 1.069-.475 1.069-1.061V27.587c0-.586-.479-1.06-1.069-1.06zM40.802 9.59l-.042-.043V7.721h2.437l-.438 1.358a1.054 1.054 0 0 0 0 .733l.502 1.358h-6.157v-.52h2.63c.59 0 1.068-.475 1.068-1.061zm-8.733-4.51h6.595v3.449H32.07v-3.45zM14.741 54.278H2.138v-25.63H14.74v25.63zm15.19 0h-5.612v-12.12h5.612v12.12zm7.75 0h-5.612v-12.12h5.612v12.12zm7.483 0h-5.345V41.097c0-.586-.479-1.061-1.069-1.061h-15.5c-.59 0-1.069.475-1.069 1.061v13.18h-5.345V24.564L31 16.646l14.121 7.874.043 3.057v26.7zm14.698 0H47.26v-25.63h12.603v25.63z"/><path d="M31 19.894c-2.475.005-4.479 2-4.479 4.457.006 2.456 2.016 4.442 4.49 4.436 2.474-.006 4.474-2.002 4.468-4.457-.005-2.452-2.01-4.436-4.479-4.436zm0 6.77a2.333 2.333 0 0 1-2.33-2.335A2.333 2.333 0 0 1 31 22.017a2.343 2.343 0 0 1 2.342 2.335h.01A2.333 2.333 0 0 1 31 26.664zm-24.15 4.32H4.712v4.245H6.85v-4.245zm5.27 0H9.983v4.245h2.137v-4.245zm12.242 0h-4.275v2.122h4.275v-2.122zm8.777 0h-4.276v2.122h4.276v-2.122zm8.775 0h-4.276v2.122h4.276v-2.122zm-17.552 4.944h-4.275v2.123h4.275v-2.123zm8.777.001h-4.276v2.122h4.276V35.93zm8.775 0h-4.276v2.122h4.276V35.93zM6.85 39.335H4.712v4.245H6.85v-4.245zm5.27 0H9.983v4.245h2.137v-4.245zm-5.27 8.363H4.712v4.245H6.85v-4.245zm5.27 0H9.983v4.245h2.137v-4.245zm39.896-16.714h-2.138v4.245h2.138v-4.245zm5.27 0h-2.138v4.245h2.138v-4.245zm-5.27 8.351h-2.138v4.245h2.138v-4.245zm5.27 0h-2.138v4.245h2.138v-4.245zm-5.27 8.363h-2.138v4.245h2.138v-4.245zm5.27 0h-2.138v4.245h2.138v-4.245z"/></symbol><symbol viewBox="0 0 30 40" id="document" xmlns="http://www.w3.org/2000/svg"><path d="M3 1h15c6.075 0 11 4.925 11 11v25a2 2 0 0 1-2 2H3a2 2 0 0 1-2-2V3a2 2 0 0 1 2-2zm3 16h15M6 21h15M6 25h15M6 29h9"/></symbol><symbol viewBox="0 0 40 40" id="download" xmlns="http://www.w3.org/2000/svg"><path d="M28.333 36.667a8.334 8.334 0 1 1 .002-16.669 8.334 8.334 0 0 1-.002 16.669m0-11.667v6.667"/><path d="M25 28.333l3.333 3.334 3.334-3.334"/><path d="M31.667 20.695v-7.648c0-.884-.352-1.732-.977-2.357l-4.713-4.713A3.335 3.335 0 0 0 23.62 5H8.333A3.332 3.332 0 0 0 5 8.333v23.334A3.332 3.332 0 0 0 8.333 35h15"/><path d="M31.666 13.333H25c-.92 0-1.667-.746-1.667-1.666V5"/></symbol><symbol viewBox="0 0 24 25" id="eye" xmlns="http://www.w3.org/2000/svg"><path d="M2 13.5c5.523-6.667 14.477-6.667 20 0"/><path class="alfill" d="M15.682 9.818a4.5 4.5 0 1 1-6.364 6.364 4.5 4.5 0 0 1 6.364-6.364"/></symbol><symbol viewBox="0 0 11 22" id="face" xmlns="http://www.w3.org/2000/svg"><path d="M6.767 7.833V5.299c0-.7.567-1.267 1.267-1.267H9.3V.865H6.767a3.8 3.8 0 0 0-3.8 3.8v3.168H.431V11h2.534v10.135h3.8V11H9.3l1.267-3.167h-3.8z"/></symbol><symbol viewBox="0 0 61 61" id="figure" xmlns="http://www.w3.org/2000/svg"><path d="M1.059 30.5L30.406 1.062l29.438 29.347-29.347 29.438z"/></symbol><symbol viewBox="0 0 399 180" id="floor15" xmlns="http://www.w3.org/2000/svg"><path d="M39.5 143.5L0 179.5v-52l38.5-34 15 9.5 105-95.5 74-7.5L338 71l17.5-11.5 43 28v52l-43-28-17.5 10-103.5-67-76 5-105 90-14-6z" fill-opacity=".8"/></symbol><symbol viewBox="0 0 24 23" id="heart" xmlns="http://www.w3.org/2000/svg"><path d="M19.828 10.685a4 4 0 1 1-5.656 5.657 4 4 0 0 1 5.656-5.656M17 12.18v2.67m1.33-1.34h-2.66"/><path d="M14.507 16.636c-1.62 1.174-2.994 1.878-3.054 1.878-.15 0-8.453-4.33-8.453-9.618 0-2.61 2.001-5.41 4.978-5.41 1.709 0 2.827.855 3.475 1.606.648-.75 1.766-1.606 3.475-1.606 2.977 0 4.978 2.8 4.978 5.41 0 .55-.107 1.086-.269 1.611"/></symbol><symbol viewBox="0 0 18 20" id="home" xmlns="http://www.w3.org/2000/svg"><path clip-rule="evenodd" d="M6.5 18.5V14A2.5 2.5 0 0 1 9 11.5a2.5 2.5 0 0 1 2.5 2.5v4.5H17V9.914a2 2 0 0 0-.586-1.414L9.707 1.793a.999.999 0 0 0-1.414 0L1.586 8.5A2 2 0 0 0 1 9.914V18.5h5.5z"/></symbol><symbol viewBox="0 0 58 58" id="horse" xmlns="http://www.w3.org/2000/svg"><path d="M20.85 17.284a.856.856 0 0 0 .733-1.297 81.644 81.644 0 0 1-1.007-1.742.857.857 0 0 0-1.493.841c.36.64.702 1.232 1.028 1.78a.856.856 0 0 0 .738.418z"/><path d="M56.805 47.068a2.318 2.318 0 0 0-2.367.09 28.58 28.58 0 0 1-2.825 1.587l-5.318-12.062c2.42-1.091 3.572-3.147 3.87-6.902.381 3.274.905 5.984 2.794 7.082a3.5 3.5 0 0 0 1.794.463 6.942 6.942 0 0 0 2.734-.671.856.856 0 0 0 .244-1.407 19.6 19.6 0 0 0-.87-.773c-1.403-1.194-1.735-1.477-1.31-8.978.154-2.708-.7-4.766-2.402-5.793-1.874-1.13-4.517-.875-7.306.686a12.918 12.918 0 0 0-5.52-1.077h-9.257a25.018 25.018 0 0 1-2.482-4.154l-.464-.992C25.945 9.5 23.482 4.245 18.06 3.163a12.403 12.403 0 0 0-.414-1.311.856.856 0 0 0-1.072-.49 5.943 5.943 0 0 0-2.193 1.379A15.824 15.824 0 0 0 12.184.21a.856.856 0 0 0-1.178.05C9.582 1.729 8.986 4.067 9.207 7.2a21.191 21.191 0 0 0-2.291 2.872c-.518.731-1.007 1.422-1.54 2.041-.6.698-1.254 1.355-1.886 1.99-1.792 1.8-3.484 3.5-3.484 5.687a4.74 4.74 0 0 0 1.538 3.755c1.598 1.269 4.65.964 7.781-.78.885-.495 1.6-.62 2.185-.376 1.469.602 2.308 3.496 2.982 5.82.216.743.419 1.444.64 2.082a15.4 15.4 0 0 0 .956 2.281 10.485 10.485 0 0 0 .479 8.025L12.814 51.2a35.14 35.14 0 0 1-9.246-4.039 2.318 2.318 0 0 0-2.367-.09 2.304 2.304 0 0 0-.164 3.94C7.87 55.45 18.064 58 29.003 58c10.94 0 21.134-2.548 27.966-6.992a2.301 2.301 0 0 0 .685-3.135 2.302 2.302 0 0 0-.85-.805zm-4.54-25.893c1.15.693 1.695 2.153 1.577 4.228-.433 7.628-.062 8.647 1.62 10.133a2.309 2.309 0 0 1-1.642-.147c-1.428-.832-1.764-3.984-2.121-7.323-.04-.382-.082-.766-.125-1.153-.245-2.2-1.343-2.883-2.245-3.064a7.048 7.048 0 0 0-1.81-2.374c1.882-.865 3.602-.994 4.746-.303v.003zm-24.23-.363a7.483 7.483 0 0 0 1.903.212h9.333v3.27a2.083 2.083 0 0 1-2.08 2.08h-7.077a2.082 2.082 0 0 1-2.08-2.08v-3.482zm-1.469-5.923c.157.336.313.67.47 1a27.28 27.28 0 0 0 1.895 3.36 3.56 3.56 0 0 1-1.32-.441c-1.608-.935-3.203-3.574-6.395-9.512a6.258 6.258 0 0 0-2.594-2.75 17.912 17.912 0 0 0-.171-1.524c4.084 1.238 6.134 5.613 8.116 9.867zM11.705 2.149c.56.61 1.073 1.261 1.535 1.948-.28.403-.537.822-.769 1.255a5.683 5.683 0 0 0-1.598.584 7.645 7.645 0 0 1 .832-3.787zm6.607 38.657a.862.862 0 0 0-.08-.738 8.646 8.646 0 0 1-.404-7.266c0-.005.005-.007.006-.012.358-.936.838-1.822 1.429-2.632a.857.857 0 1 0-1.39-1c-.306.426-.587.87-.843 1.328a33 33 0 0 1-.278-.76 41.78 41.78 0 0 1-.612-1.996c-.818-2.817-1.745-6.011-3.976-6.928-1.085-.445-2.319-.287-3.67.468-2.724 1.517-5.021 1.618-5.858.955a3.047 3.047 0 0 1-.916-2.434c0-1.48 1.383-2.87 2.985-4.482.653-.657 1.329-1.336 1.97-2.081.587-.68 1.121-1.437 1.64-2.169a17.476 17.476 0 0 1 2.31-2.839l.024-.022a4.46 4.46 0 0 1 2.486-1.218.856.856 0 0 0 .666-.47A10.595 10.595 0 0 1 15 4.588c.375-.48.826-.895 1.337-1.228.341 1.222.541 2.478.598 3.746a.856.856 0 0 0 .47.728 4.74 4.74 0 0 1 2.288 2.25c3.255 6.06 4.863 8.672 6.627 9.924v4.286a3.798 3.798 0 0 0 3.793 3.794h7.077a3.796 3.796 0 0 0 3.793-3.794v-3.25c5.068.191 7.541 2.613 7.542 7.378-.133 4.885-1.436 6.256-3.642 6.971a.855.855 0 0 0-.519 1.16l5.692 12.91c-.701.303-1.42.595-2.166.865l-4.239-9.62a.859.859 0 0 0-.57-.483 8.522 8.522 0 0 1-4.603-3.701v-.004a10.59 10.59 0 0 1-1.434-4.212.855.855 0 0 0-1.284-.645.857.857 0 0 0-.414.87c.156 1.239.491 2.449.995 3.592h-2.444l-1.973-.005a41.08 41.08 0 0 1-8.443-.695.856.856 0 0 0-.988.547L16.67 52.145a50.238 50.238 0 0 1-2.197-.5l3.838-10.839zm18.976-2.973a10.383 10.383 0 0 0 4.953 3.916l4.02 9.129a58.045 58.045 0 0 1-17.258 2.472 62.913 62.913 0 0 1-10.628-.884l5.481-15.22a45.76 45.76 0 0 0 8.068.587l1.966.003c1.216.002 2.344.005 3.395-.003h.003zm18.749 11.74c-6.564 4.266-16.417 6.714-27.034 6.714-10.616 0-20.469-2.448-27.03-6.715a.578.578 0 0 1-.253-.486.572.572 0 0 1 .302-.513.601.601 0 0 1 .62.026c6.367 4.108 15.976 6.464 26.361 6.464 10.386 0 19.995-2.356 26.363-6.465a.593.593 0 0 1 .842.19c.054.09.08.193.08.299a.58.58 0 0 1-.253.485h.002z"/><path d="M13.006 10.306a2.325 2.325 0 1 0 0 4.65 2.325 2.325 0 0 0 0-4.65zm0 2.937a.612.612 0 1 1 0-1.224.612.612 0 0 1 0 1.224z"/></symbol><symbol viewBox="0 0 30 30" id="inst" xmlns="http://www.w3.org/2000/svg"><path d="M10.001 15a5 5 0 1 1 10-.001 5 5 0 0 1-10 .001zm-2.703 0a7.702 7.702 0 1 0 15.405 0 7.702 7.702 0 0 0-15.405 0zm13.91-8.008a1.8 1.8 0 1 0 1.8-1.799 1.8 1.8 0 0 0-1.8 1.8zM8.94 27.21c-1.463-.067-2.258-.31-2.786-.516a4.66 4.66 0 0 1-1.725-1.122 4.628 4.628 0 0 1-1.122-1.724c-.206-.528-.45-1.324-.516-2.786-.073-1.581-.088-2.056-.088-6.062s.016-4.48.088-6.062c.066-1.462.312-2.256.516-2.785.272-.7.597-1.2 1.122-1.726a4.623 4.623 0 0 1 1.725-1.122c.528-.206 1.323-.45 2.786-.516 1.58-.072 2.056-.087 6.06-.087s4.479.016 6.061.087c1.463.067 2.256.312 2.786.516.7.272 1.2.598 1.725 1.122.526.525.85 1.025 1.122 1.726.206.528.45 1.323.516 2.785.073 1.583.088 2.056.088 6.062s-.015 4.48-.088 6.062c-.066 1.462-.311 2.257-.516 2.785-.272.7-.597 1.2-1.122 1.725a4.66 4.66 0 0 1-1.725 1.122c-.528.206-1.323.45-2.786.516-1.58.072-2.056.087-6.061.087-4.006 0-4.48-.015-6.06-.087zM8.816.09C7.22.165 6.128.418 5.176.789a7.357 7.357 0 0 0-2.658 1.73 7.329 7.329 0 0 0-1.73 2.657c-.37.953-.624 2.044-.697 3.64-.073 1.6-.09 2.112-.09 6.185 0 4.073.017 4.585.09 6.184.073 1.597.326 2.688.697 3.641a7.333 7.333 0 0 0 1.73 2.657 7.376 7.376 0 0 0 2.657 1.73c.955.371 2.045.624 3.641.697 1.6.073 2.111.091 6.185.091 4.073 0 4.584-.017 6.184-.09 1.597-.074 2.687-.327 3.64-.698a7.377 7.377 0 0 0 2.658-1.73 7.347 7.347 0 0 0 1.73-2.657c.37-.953.625-2.044.697-3.64.073-1.601.09-2.111.09-6.185 0-4.073-.017-4.585-.09-6.184-.073-1.597-.326-2.688-.697-3.641a7.375 7.375 0 0 0-1.73-2.657 7.34 7.34 0 0 0-2.656-1.73C23.872.417 22.782.162 21.186.09c-1.6-.072-2.11-.09-6.184-.09s-4.585.017-6.186.09z"/></symbol><symbol viewBox="0 0 25 25" id="key" xmlns="http://www.w3.org/2000/svg"><path clip-rule="evenodd" d="M8 22c1.108 0 2.007-.918 2.008-2.05l.004-4.132a4.882 4.882 0 0 0 2.411-2.282c.914-1.793.74-4.045-.504-5.616a4.957 4.957 0 0 0-7.849.018c-1.237 1.577-1.406 3.83-.483 5.617a4.892 4.892 0 0 0 2.409 2.267l-.004 4.123C5.991 21.08 6.89 22 8 22z"/><path d="M8.794 10.5a.294.294 0 1 0-.588 0 .294.294 0 0 0 .588 0M13 5.613C13 4.169 11.88 3 10.5 3S8 4.17 8 5.613V10m4-2.913l.469-.472a2.071 2.071 0 0 1 2.945 0l5.976 6.022a2.11 2.11 0 0 1 0 2.97l-2.757 2.778c-.814.82-2.132.82-2.946 0l-3.596-3.625"/></symbol><symbol viewBox="0 0 14 19" id="location" xmlns="http://www.w3.org/2000/svg"><path d="M7.029 0h-.03C3.14 0 0 3.17 0 7.065c0 2.136 1.082 3.802 2.287 5.46L6.99 19s4.445-6.091 4.723-6.474C12.918 10.867 14 9.2 14 7.066 14 3.178 10.876.015 7.029 0zm3.795 11.868c-.278.383-3.199 4.42-3.82 5.269l-3.828-5.27c-1.134-1.56-2.073-3-2.073-4.802 0-3.273 2.63-5.937 5.869-5.952H7c3.252 0 5.897 2.67 5.897 5.952 0 1.802-.939 3.241-2.073 4.803z"/><path d="M6.999 2.59c-2.413 0-4.375 1.938-4.375 4.319 0 2.381 1.962 4.318 4.375 4.318 2.412 0 4.375-1.937 4.375-4.318 0-2.381-1.963-4.318-4.375-4.318zm0 7.459c-1.754 0-3.181-1.409-3.181-3.14s1.427-3.14 3.18-3.14c1.755 0 3.182 1.409 3.182 3.14s-1.427 3.14-3.181 3.14z"/></symbol><symbol viewBox="0 0 214 48" id="logo" xmlns="http://www.w3.org/2000/svg"><path class="avlogo-text" d="M118.42 14.636c0-2.761-1.619-4.483-3.852-4.483-2.233 0-3.852 1.722-3.852 4.483 0 2.762 1.619 4.483 3.852 4.483 2.233 0 3.852-1.721 3.852-4.483zm-1.022 0c0 2.267-1.245 3.495-2.83 3.495s-2.829-1.228-2.829-3.495c0-2.267 1.244-3.494 2.829-3.494 1.585 0 2.83 1.227 2.83 3.494zm2.588-1.244h2.165V19h1.006v-5.608h2.147v-.938h-5.318v.938zm11.766 4.125v-5.063h-1.006V19h1.176l3.137-5.063V19h1.005v-6.546h-1.159l-3.153 5.063zm5.756 3.358h1.005V19h4.841v1.875h1.006v-2.813h-1.006v-5.608h-4.159l-.222 2.591c-.157 1.833-.392 2.464-.92 3.018h-.545v2.812zm1.687-2.813c.46-.605.626-1.649.767-3.017l.171-1.653h2.215v4.67h-3.153zm9.544 1.074c1.33 0 2.301-.664 2.608-1.653l-.972-.273c-.255.682-.848 1.023-1.636 1.023-1.18 0-1.994-.763-2.041-2.165h4.751v-.426c0-2.438-1.449-3.273-2.812-3.273-1.773 0-2.949 1.398-2.949 3.41 0 2.01 1.159 3.357 3.051 3.357zm-2.041-3.937c.068-1.019.788-1.926 1.939-1.926 1.091 0 1.789.818 1.789 1.926h-3.728zm7.587 2.318v-5.063h-1.006V19h1.176l3.137-5.063V19h1.005v-6.546h-1.159l-3.153 5.063zm-44.063 22.358h1.005V38h4.841v1.875h1.006v-2.813h-1.006v-5.607h-4.159l-.221 2.59c-.158 1.833-.393 2.463-.921 3.017h-.545v2.813zm1.687-2.813c.46-.605.627-1.649.767-3.017l.171-1.653h2.215v4.67h-3.153zm9.459 1.074c1.773 0 2.966-1.346 2.966-3.375 0-2.045-1.193-3.392-2.966-3.392-1.773 0-2.966 1.347-2.966 3.392 0 2.029 1.193 3.375 2.966 3.375zm0-.903c-1.347 0-1.96-1.16-1.96-2.472s.613-2.488 1.96-2.488c1.346 0 1.96 1.176 1.96 2.488 0 1.313-.614 2.472-1.96 2.472zm10.641-4.926c1.022.008 1.632.946 1.764 1.926h-2.429v.938h2.437c-.106.997-.737 2.002-1.772 2.01-.767-.008-1.483-.672-1.483-1.414h-.989c0 1.304 1.04 2.352 2.472 2.352 1.789 0 2.795-1.521 2.795-3.255v-.239c0-1.734-1.006-3.256-2.795-3.256-1.279 0-2.472 1.049-2.472 2.182h.989c0-.677.801-1.236 1.483-1.244zM136.636 38h1.006v-2.761h.903L140.693 38h1.295l-2.676-3.392 2.642-3.153h-1.295l-2.352 2.846h-.665v-2.847h-1.006V38zm9.135.136c1.449 0 2.403-.886 2.574-2.045h-1.006c-.187.716-.784 1.142-1.568 1.142-1.193 0-1.96-.989-1.96-2.506 0-1.483.784-2.454 1.96-2.454.886 0 1.415.545 1.568 1.142h1.006c-.171-1.227-1.21-2.046-2.591-2.046-1.773 0-2.949 1.398-2.949 3.392 0 1.96 1.125 3.375 2.966 3.375zm4.344-.136h1.006v-5.608h3.136V38h1.006v-6.546h-5.148V38zm6.705 0h.341c1.449 0 1.866-1.125 1.96-3.273l.102-2.335h2.404V38h1.005v-6.546h-4.363l-.12 2.898c-.085 2.2-.306 2.71-1.091 2.71h-.238V38zm8.371 2.438c.908 0 1.551-.482 1.926-1.483l2.787-7.483-1.1-.018-1.806 5.216h-.069l-1.806-5.216h-1.091l2.42 6.58-.187.511c-.358.98-.818 1.074-1.551.887l-.256.886c.102.051.392.12.733.12zm8.07-2.285c1.142 0 1.739-.613 1.944-1.04h.051V38h1.005v-4.313c0-2.079-1.585-2.318-2.42-2.318-.989 0-2.114.341-2.625 1.534l.955.341c.221-.477.745-.988 1.704-.988.925 0 1.381.49 1.381 1.33v.033c0 .486-.495.444-1.688.597-1.214.158-2.54.426-2.54 1.926 0 1.278.989 2.011 2.233 2.011zm.154-.903c-.801 0-1.381-.358-1.381-1.057 0-.767.699-1.005 1.483-1.108.426-.05 1.568-.17 1.739-.375v.92c0 .819-.648 1.62-1.841 1.62zm4.091-4.858h2.165V38h1.006v-5.608h2.148v-.938h-5.319v.938zm8.672 5.761c1.142 0 1.738-.613 1.943-1.04h.051V38h1.006v-4.313c0-2.079-1.585-2.318-2.421-2.318-.988 0-2.113.341-2.625 1.534l.955.341c.222-.477.746-.988 1.704-.988.925 0 1.381.49 1.381 1.33v.033c0 .486-.494.444-1.687.597-1.215.158-2.54.426-2.54 1.926 0 1.278.989 2.011 2.233 2.011zm.153-.903c-.801 0-1.38-.358-1.38-1.057 0-.767.698-1.005 1.483-1.108.426-.05 1.568-.17 1.738-.375v.92c0 .819-.648 1.62-1.841 1.62zm10.13-5.796h-1.006v5.608h-3.136v-5.607h-1.006V38h5.148v2.114h1.006v-3.051h-1.006v-5.609zm3.775 5.063v-5.063h-1.005V38h1.176l3.136-5.063V38h1.006v-6.546h-1.159l-3.154 5.063zm7.46 0v-5.063h-1.005V38h1.176l3.136-5.063V38h1.006v-6.546h-1.159l-3.154 5.063z"/><path class="avlogo-aside" d="M34.023 38h-7.226V21.672h-.156l-6.348 15.996h-4.434L9.512 21.672h-.157V38H2.13V9.816h9.57l6.309 16.446h.156l6.29-16.446h9.57V38zm44.98-19.57c-1.6.104-2.883.631-3.847 1.582-.99.976-1.484 2.272-1.484 3.886 0 1.615.495 2.917 1.484 3.907.964.95 2.246 1.478 3.848 1.582V18.43zm13.184 5.488c0-1.615-.494-2.917-1.484-3.906-.963-.95-2.246-1.478-3.847-1.582v10.957c1.601-.104 2.884-.632 3.847-1.582.99-.977 1.484-2.272 1.484-3.887zm-13.32 11.797c-4.101-.156-7.357-1.244-9.765-3.262-2.487-2.096-3.73-4.948-3.73-8.555 0-3.58 1.25-6.425 3.75-8.535 2.408-2.018 5.657-3.105 9.745-3.261V9.035h8.125v3.067c4.102.156 7.357 1.243 9.766 3.261 2.487 2.097 3.73 4.948 3.73 8.555 0 3.58-1.25 6.426-3.75 8.535-2.409 2.018-5.657 3.106-9.746 3.262v3.066h-8.125v-3.066z"/><path class="avlogo-b" d="M62.988 28.703c0 2.826-.963 5.085-2.89 6.777C58.184 37.16 55.65 38 52.5 38H39.629V9.816h20.977v6.563H47.91v3.379h4.219c3.255 0 5.872.807 7.852 2.422 2.005 1.64 3.007 3.815 3.007 6.523zm-12.5 3.047c1.276 0 2.266-.26 2.969-.781.73-.521 1.094-1.283 1.094-2.285 0-2.058-1.374-3.086-4.121-3.086h-2.52v6.152h2.578z"/></symbol><symbol viewBox="0 0 24 24" id="med" xmlns="http://www.w3.org/2000/svg"><path clip-rule="evenodd" d="M16.362 12l3.577 2.018a1 1 0 0 1 .37 1.38l-1.163 1.969a.999.999 0 0 1-1.352.362l-3.612-2.038V20a1 1 0 0 1-1 1H10.82a1 1 0 0 1-1-1v-4.309l-3.612 2.038a.999.999 0 0 1-1.352-.362l-1.163-1.969a1 1 0 0 1 .37-1.38L7.638 12 4.061 9.982a1 1 0 0 1-.37-1.38l1.163-1.969a.999.999 0 0 1 1.352-.362l3.612 2.038V4a1 1 0 0 1 1-1h2.362a1 1 0 0 1 1 1v4.309l3.612-2.038a.999.999 0 0 1 1.352.362l1.163 1.969a1 1 0 0 1-.37 1.38L16.362 12z"/></symbol><symbol viewBox="0 0 24 24" id="news" xmlns="http://www.w3.org/2000/svg"><path d="M13 4.5h7m-7 5h7m-16 5h16m-16 5h16M9 9.5l-2.5-5-2.5 5m.5-1h4"/></symbol><symbol viewBox="0 0 25 26" id="ok" xmlns="http://www.w3.org/2000/svg"><path d="M12.5 2.279a5.366 5.366 0 0 0-5.36 5.36A5.366 5.366 0 0 0 12.5 13a5.366 5.366 0 0 0 5.36-5.36 5.366 5.366 0 0 0-5.36-5.36zm0 8.04a2.683 2.683 0 0 1-2.68-2.68 2.683 2.683 0 0 1 2.68-2.68 2.683 2.683 0 0 1 2.68 2.68 2.683 2.683 0 0 1-2.68 2.68z"/><path d="M19.608 12.851a1.339 1.339 0 0 0-1.895 0c-2.873 2.873-7.55 2.873-10.425 0a1.34 1.34 0 1 0-1.895 1.896 9.99 9.99 0 0 0 5.96 2.866l-3.821 3.82a1.339 1.339 0 0 0 0 1.895 1.339 1.339 0 0 0 1.895 0l3.073-3.073 3.073 3.073a1.336 1.336 0 0 0 1.895 0 1.339 1.339 0 0 0 0-1.895l-3.82-3.82a9.99 9.99 0 0 0 5.959-2.866 1.341 1.341 0 0 0 .001-1.896z"/></symbol><symbol viewBox="0 0 24 24" id="ost" xmlns="http://www.w3.org/2000/svg"><path clip-rule="evenodd" d="M13.845 18.313l4.062-10.959a1.003 1.003 0 0 0-1.289-1.289L5.654 10.13c-.924.343-.851 1.673.104 1.913l4.94 1.241 1.233 4.924c.24.956 1.571 1.029 1.914.105z"/></symbol><symbol viewBox="0 0 20 20" id="phone" xmlns="http://www.w3.org/2000/svg"><path clip-rule="evenodd" d="M16.965 14.61l-1.174-1.173a1.5 1.5 0 0 0-2.12 0l-.922.922a.71.71 0 0 1-.785.158c-1.335-.585-2.655-1.472-3.832-2.649A12.645 12.645 0 0 1 5.49 8.051a.733.733 0 0 1 .162-.81l.826-.827c.67-.67.67-1.62.085-2.206L5.39 3.035a2 2 0 0 0-2.828 0l-.652.651c-.741.741-1.05 1.81-.85 2.87.494 2.613 2.012 5.474 4.46 7.923 2.45 2.45 5.31 3.967 7.924 4.461 1.06.2 2.128-.109 2.87-.85l.65-.65a2 2 0 0 0 0-2.83z"/><path d="M11 4.991a3.944 3.944 0 0 1 2.854 1.155m2.828-2.828A8.012 8.012 0 0 0 11 .964M15.008 9a3.944 3.944 0 0 0-1.154-2.854m2.828-2.828A8.012 8.012 0 0 1 19.036 9"/></symbol><symbol viewBox="0 0 24 24" id="product" xmlns="http://www.w3.org/2000/svg"><path d="M4.22 10.89v10m15.56-10v10m-5.558-.001v-4.444a2.222 2.222 0 0 0-4.444 0v4.444M2 20.89h20"/><path clip-rule="evenodd" d="M4.301 10.889c-1.698-.012-2.805-1.693-2.069-3.142L3.947 4.37c.391-.77 1.213-1.259 2.115-1.259h11.876c.902 0 1.724.489 2.115 1.259l1.716 3.377c.736 1.449-.371 3.13-2.069 3.142-1.417 0-2.566-.968-2.566-2.163v-.048c0 1.221-1.149 2.211-2.566 2.211-1.417 0-2.566-.99-2.566-2.211 0 1.221-1.149 2.211-2.566 2.211-1.417 0-2.566-.99-2.566-2.211v.048c-.003 1.195-1.152 2.163-2.569 2.163z"/></symbol><symbol viewBox="0 0 24 24" id="school" xmlns="http://www.w3.org/2000/svg"><path d="M19 5h1a2 2 0 0 1 2 2v12a2 2 0 0 1-2 2H4a2 2 0 0 1-2-2V7a2 2 0 0 1 2-2h1"/><path clip-rule="evenodd" d="M12 6a3 3 0 0 0-3-3H6a1 1 0 0 0-1 1v13a1 1 0 0 0 1 1h3a3 3 0 0 1 3 3 3 3 0 0 1 3-3h3a1 1 0 0 0 1-1V4a1 1 0 0 0-1-1h-3a3 3 0 0 0-3 3z"/><path d="M12 6v15"/></symbol><symbol viewBox="0 0 40 40" id="share" xmlns="http://www.w3.org/2000/svg"><path d="M16.41 18.035a2.778 2.778 0 1 1-3.93 3.93 2.778 2.778 0 0 1 3.93-3.93m.507 3.198l6.167 3.084m0-8.634l-6.167 3.084M27.52 12.48a2.778 2.778 0 1 1-3.93 3.93 2.778 2.778 0 0 1 3.93-3.93m0 11.11a2.778 2.778 0 1 1-3.93 3.93 2.778 2.778 0 0 1 3.93-3.93"/><path clip-rule="evenodd" d="M31.667 35H8.333A3.332 3.332 0 0 1 5 31.667V8.333A3.332 3.332 0 0 1 8.333 5h23.334A3.332 3.332 0 0 1 35 8.333v23.334A3.332 3.332 0 0 1 31.667 35z"/></symbol><symbol viewBox="0 0 24 24" id="sport" xmlns="http://www.w3.org/2000/svg"><path clip-rule="evenodd" d="M4.004 4.5c0 .996.122 1.989.364 2.955l.314 1.257a3 3 0 0 1-.414 2.392l-.938 1.407a6.998 6.998 0 0 0-.347 7.186l.429.802A2.843 2.843 0 0 0 5.918 22h1.484a2.84 2.84 0 0 0 2.577-1.644l.368-.792a7 7 0 0 0-.523-6.833L8.74 11.104a3 3 0 0 1-.414-2.392l.38-1.518c.198-.793.299-1.608.299-2.425V4.5a2.5 2.5 0 0 0-2.5-2.5 2.5 2.5 0 0 0-2.501 2.5z"/><path d="M4.72 10H8.3m10.008 2.692a.36.36 0 1 1-.51.51.36.36 0 0 1 .51-.51m-3.574.51a.36.36 0 1 1-.51.51.36.36 0 0 1 .51-.51m3.064 3.064a.36.36 0 1 1-.51.51.36.36 0 0 1 .51-.51"/><path d="M9.709 12.558A6.495 6.495 0 0 1 15.5 9a6.5 6.5 0 1 1 0 13 6.485 6.485 0 0 1-5.124-2.51"/></symbol><symbol viewBox="0 0 20 20" id="up" xmlns="http://www.w3.org/2000/svg"><path d="M19 11l-9-9-9 9"/></symbol><symbol viewBox="0 0 25 16" id="vk" xmlns="http://www.w3.org/2000/svg"><path d="M20.745 9.07c-.404-.51-.289-.737 0-1.193.005-.005 3.341-4.616 3.685-6.18h.002c.171-.57 0-.989-.826-.989h-2.733c-.696 0-1.017.36-1.189.762 0 0-1.391 3.331-3.36 5.49-.636.624-.93.824-1.276.824-.17 0-.437-.2-.437-.77V1.697c0-.684-.194-.989-.77-.989H9.543c-.437 0-.696.319-.696.616 0 .648.984.797 1.086 2.62v3.955c0 .867-.157 1.026-.506 1.026-.93 0-3.184-3.345-4.52-7.173-.27-.743-.534-1.043-1.235-1.043H.937C.157.71 0 1.07 0 1.471c0 .71.93 4.242 4.32 8.91 2.261 3.184 5.445 4.91 8.34 4.91 1.741 0 1.954-.383 1.954-1.042 0-3.044-.158-3.331.714-3.331.404 0 1.1.2 2.725 1.736 1.857 1.822 2.163 2.638 3.202 2.638h2.733c.78 0 1.175-.384.947-1.14-.52-1.59-4.032-4.862-4.19-5.081z"/></symbol><symbol viewBox="0 0 24 24" id="www" xmlns="http://www.w3.org/2000/svg"><path d="M12 3.1c4.667 4.927 4.667 12.873 0 17.8m0 0C7.333 15.973 7.333 8.027 12 3.1"/><path d="M12 3c4.982 0 9 4.018 9 9s-4.018 9-9 9m0 0c-4.982 0-9-4.018-9-9s4.018-9 9-9M3.51 9h16.98M3.51 15h16.98"/></symbol></svg>