<svg width="63" height="63" viewBox="0 0 63 63" fill="none" xmlns="http://www.w3.org/2000/svg">
<path d="M61.95 60.9H57.6851C57.7299 60.5549 57.7501 60.2026 57.7501 59.85C57.7501 56.8863 56.0445 54.3636 53.5501 53.1954V17.85C53.5501 17.2199 53.1302 16.8 52.5002 16.8H36.7502V1.04996C36.7502 0.41996 36.3302 2.70321e-08 35.7002 2.70321e-08H7.3502C6.71996 -0.00012302 6.3 0.419837 6.3 1.04984V60.9H1.04996C0.419959 60.9 0 61.3199 0 61.9499C0 62.5799 0.419959 63 1.04996 63H7.34996H10.5H35.7H56.385H61.95C62.58 63 63 62.58 63 61.95C63 61.32 62.58 60.9 61.95 60.9ZM51.45 52.5741C51.1073 52.5262 50.7571 52.4999 50.4 52.4999C49.6073 52.4999 48.8298 52.6349 48.0952 52.8872C47.9122 52.6434 47.6173 52.4999 47.25 52.4999C46.62 52.4999 46.2 52.9199 46.2 53.5499V53.8716C45.8021 54.1583 45.4321 54.4854 45.0963 54.849C45.0433 54.9051 44.9911 54.9619 44.94 55.0198C44.07 53.9322 42.9493 53.1454 41.6821 52.7624C41.5001 52.5954 41.2492 52.4998 40.95 52.4998C40.833 52.4998 40.7232 52.5144 40.622 52.5421C40.3848 52.5144 40.144 52.4998 39.9 52.4998C39.242 52.4998 38.501 52.5852 37.9007 52.8289C37.8263 52.854 37.7525 52.8799 37.6794 52.9076C36.9538 52.3177 36.1052 51.893 35.2108 51.6594C35.2014 51.6568 35.1917 51.6549 35.1823 51.6523C35.1043 51.6323 35.026 51.6132 34.9474 51.5961C34.8837 51.5821 34.8192 51.5699 34.7548 51.5578C34.7269 51.5527 34.699 51.5471 34.6709 51.5423C34.6034 51.5307 34.5356 51.5203 34.4673 51.5108C34.4368 51.5065 34.4062 51.5027 34.3756 51.4989C34.313 51.4912 34.2501 51.4839 34.1869 51.4781C34.1407 51.4738 34.0944 51.4706 34.0482 51.4673C33.9987 51.4638 33.9494 51.4598 33.8995 51.4574C33.7997 51.4526 33.7 51.4497 33.6 51.4497C33.5228 51.4497 33.4461 51.4513 33.3698 51.4541C33.3199 51.4558 33.27 51.4589 33.2202 51.4617C33.2003 51.463 33.1801 51.4638 33.1601 51.4652C32.2036 51.5287 31.2638 51.7986 30.4499 52.2768V18.8999H35.7H51.45V52.5741ZM8.40004 2.09992H34.65V16.8H29.4C28.77 16.8 28.35 17.2199 28.35 17.85V50.5051C27.8134 49.9684 27.1948 49.5145 26.5214 49.1593C26.462 49.1275 26.4019 49.0968 26.3416 49.0668C26.3179 49.0551 26.2944 49.0429 26.2705 49.0314C25.5212 48.668 24.7057 48.4295 23.8536 48.3403C23.8417 48.3391 23.8296 48.3381 23.8176 48.3368C23.7186 48.327 23.6192 48.3192 23.5193 48.3135C23.4928 48.3119 23.4664 48.3103 23.4398 48.3089C23.327 48.3036 23.2138 48.3001 23.1 48.3001C21.5373 48.3001 20.0895 48.814 18.9 49.6778V49.3501C18.9 48.7201 18.48 48.3002 17.85 48.3002C17.22 48.3002 16.8001 48.7201 16.8001 49.3501V51.4502C16.8001 51.6077 16.8263 51.752 16.8755 51.88C16.3599 52.7296 16.0047 53.6874 15.8551 54.7053C14.6463 54.8434 13.5409 55.2784 12.6001 55.9287V55.6503C12.6001 55.0203 12.1802 54.6003 11.5502 54.6003C10.9202 54.6003 10.5002 55.0203 10.5002 55.6503V57.7503C10.5002 57.8729 10.5166 57.9872 10.5468 58.0923C10.0262 58.9343 9.67198 59.887 9.52604 60.9002H8.40029V2.09992H8.40004ZM16.3222 56.7218C16.343 56.7199 16.364 56.7187 16.3849 56.7171C16.4403 56.7128 16.4957 56.7086 16.5515 56.706C16.6338 56.7023 16.7167 56.6999 16.8001 56.6999C17.4301 56.6999 17.85 56.2799 17.85 55.6499C17.85 52.7099 20.16 50.3998 23.1001 50.3998C25.725 50.3998 27.93 52.2899 28.245 54.9148C28.316 55.1988 28.4846 55.4328 28.7152 55.5884C28.7297 55.5986 28.7446 55.6082 28.7597 55.6177C28.776 55.6276 28.7921 55.6377 28.809 55.6468C28.8477 55.6682 28.8881 55.6878 28.9302 55.7047C28.9318 55.7053 28.9332 55.7059 28.9348 55.7066C28.983 55.7258 29.0332 55.7419 29.085 55.7549C29.0851 55.7549 29.0851 55.7549 29.0852 55.755C29.1477 55.7758 29.2187 55.7838 29.2938 55.7814C29.6389 55.7865 29.9599 55.5977 30.135 55.3353C30.135 55.3351 30.1352 55.3351 30.1353 55.335L30.2402 55.2301C31.0803 54.1801 32.2352 53.5501 33.6003 53.5501C34.3093 53.5501 35.0179 53.7487 35.6539 54.1201C34.4014 55.2977 33.6912 56.833 33.6087 58.4757C33.6031 58.5831 33.6003 58.6914 33.6003 58.8002C33.6003 59.5303 33.7217 60.2301 33.962 60.9002H11.655C12.1464 58.6395 14.018 56.9311 16.3222 56.7218ZM36.4408 60.9C36.0397 60.2215 35.805 59.4193 35.805 58.695C35.805 57.5339 36.2628 56.4879 37.0495 55.7232C37.1999 55.5838 37.3602 55.4551 37.5295 55.3386C37.6936 55.3398 37.8586 55.3056 38.01 55.2299C40.32 53.9699 43.05 55.125 43.8901 57.4349C43.995 57.7499 44.31 58.0649 44.8351 58.0649C44.9347 58.0649 45.045 58.0332 45.1557 57.9768C45.4192 57.9337 45.6275 57.7402 45.7801 57.4349C46.187 56.5703 46.817 55.88 47.5838 55.3961C47.7493 55.3499 47.8914 55.2682 48.0045 55.1573C48.7257 54.7948 49.5432 54.5999 50.4001 54.5999C53.3401 54.5999 55.6502 56.9099 55.6502 59.85C55.6502 60.165 55.6502 60.585 55.5452 60.9H36.4408Z" fill="#D8BB54"/>
<path d="M34.6513 27.2993C34.0213 27.2993 33.6013 27.7193 33.6013 28.3493V30.4493C33.6013 31.0793 34.0213 31.4993 34.6513 31.4993C35.2813 31.4993 35.7012 31.0793 35.7012 30.4493V28.3493C35.7012 27.7193 35.2813 27.2993 34.6513 27.2993Z" fill="#D8BB54"/>
<path d="M34.6513 46.1997C34.0213 46.1997 33.6013 46.6197 33.6013 47.2497V49.3497C33.6013 49.9797 34.0213 50.3997 34.6513 50.3997C35.2813 50.3997 35.7012 49.9797 35.7012 49.3497V47.2497C35.7012 46.6197 35.2813 46.1997 34.6513 46.1997Z" fill="#D8BB54"/>
<path d="M34.6513 33.5996C34.0213 33.5996 33.6013 34.0196 33.6013 34.6496V36.7496C33.6013 37.3796 34.0213 37.7996 34.6513 37.7996C35.2813 37.7996 35.7012 37.3796 35.7012 36.7496V34.6496C35.7012 34.0196 35.2813 33.5996 34.6513 33.5996Z" fill="#D8BB54"/>
<path d="M34.6513 39.8994C34.0213 39.8994 33.6013 40.3194 33.6013 40.9494V43.0494C33.6013 43.6794 34.0213 44.0994 34.6513 44.0994C35.2813 44.0994 35.7012 43.6794 35.7012 43.0494V40.9494C35.7012 40.3194 35.2813 39.8994 34.6513 39.8994Z" fill="#D8BB54"/>
<path d="M34.6513 20.9995C34.0213 20.9995 33.6013 21.4195 33.6013 22.0495V24.1495C33.6013 24.7795 34.0213 25.1995 34.6513 25.1995C35.2813 25.1995 35.7012 24.7795 35.7012 24.1495V22.0495C35.7012 21.4195 35.2813 20.9995 34.6513 20.9995Z" fill="#D8BB54"/>
<path d="M40.9484 31.4993C41.5784 31.4993 41.9984 31.0793 41.9984 30.4493V28.3493C41.9984 27.7193 41.5784 27.2993 40.9484 27.2993C40.3184 27.2993 39.8984 27.7193 39.8984 28.3493V30.4493C39.8984 31.0793 40.3184 31.4993 40.9484 31.4993Z" fill="#D8BB54"/>
<path d="M40.9484 25.1995C41.5784 25.1995 41.9984 24.7795 41.9984 24.1495V22.0495C41.9984 21.4195 41.5784 20.9995 40.9484 20.9995C40.3184 20.9995 39.8984 21.4195 39.8984 22.0495V24.1495C39.8984 24.7795 40.3184 25.1995 40.9484 25.1995Z" fill="#D8BB54"/>
<path d="M40.9484 37.7996C41.5784 37.7996 41.9984 37.3796 41.9984 36.7496V34.6496C41.9984 34.0196 41.5784 33.5996 40.9484 33.5996C40.3184 33.5996 39.8984 34.0196 39.8984 34.6496V36.7496C39.8984 37.3796 40.3184 37.7996 40.9484 37.7996Z" fill="#D8BB54"/>
<path d="M40.9484 44.0994C41.5784 44.0994 41.9984 43.6794 41.9984 43.0494V40.9494C41.9984 40.3194 41.5784 39.8994 40.9484 39.8994C40.3184 39.8994 39.8984 40.3194 39.8984 40.9494V43.0494C39.8984 43.6794 40.3184 44.0994 40.9484 44.0994Z" fill="#D8BB54"/>
<path d="M40.9484 50.3997C41.5784 50.3997 41.9984 49.9797 41.9984 49.3497V47.2497C41.9984 46.6197 41.5784 46.1997 40.9484 46.1997C40.3184 46.1997 39.8984 46.6197 39.8984 47.2497V49.3497C39.8984 49.9797 40.3184 50.3997 40.9484 50.3997Z" fill="#D8BB54"/>
<path d="M47.2494 37.7996C47.8794 37.7996 48.2993 37.3796 48.2993 36.7496V34.6496C48.2993 34.0196 47.8794 33.5996 47.2494 33.5996C46.6194 33.5996 46.1994 34.0196 46.1994 34.6496V36.7496C46.1994 37.3796 46.6194 37.7996 47.2494 37.7996Z" fill="#D8BB54"/>
<path d="M47.2494 31.4993C47.8794 31.4993 48.2993 31.0793 48.2993 30.4493V28.3493C48.2993 27.7193 47.8794 27.2993 47.2494 27.2993C46.6194 27.2993 46.1994 27.7193 46.1994 28.3493V30.4493C46.1994 31.0793 46.6194 31.4993 47.2494 31.4993Z" fill="#D8BB54"/>
<path d="M47.2494 50.4002C47.8794 50.4002 48.2993 49.9802 48.2993 49.3502V47.2502C48.2993 46.6202 47.8794 46.2002 47.2494 46.2002C46.6194 46.2002 46.1994 46.6202 46.1994 47.2502V49.3502C46.1994 49.9802 46.6194 50.4002 47.2494 50.4002Z" fill="#D8BB54"/>
<path d="M47.2494 44.0999C47.8794 44.0999 48.2993 43.6799 48.2993 43.0499V40.9499C48.2993 40.3199 47.8794 39.8999 47.2494 39.8999C46.6194 39.8999 46.1994 40.3199 46.1994 40.9499V43.0499C46.1994 43.6799 46.6194 44.0999 47.2494 44.0999Z" fill="#D8BB54"/>
<path d="M47.2494 25.1995C47.8794 25.1995 48.2993 24.7795 48.2993 24.1495V22.0495C48.2993 21.4195 47.8794 20.9995 47.2494 20.9995C46.6194 20.9995 46.1994 21.4195 46.1994 22.0495V24.1495C46.1994 24.7795 46.6194 25.1995 47.2494 25.1995Z" fill="#D8BB54"/>
<path d="M11.5516 39.8997C12.1816 39.8997 12.6016 39.4797 12.6016 38.8497V36.7497C12.6016 36.1197 12.1816 35.6997 11.5516 35.6997C10.9216 35.6997 10.5016 36.1197 10.5016 36.7497V38.8497C10.5015 39.4796 10.9216 39.8997 11.5516 39.8997Z" fill="#D8BB54"/>
<path d="M11.5516 46.2C12.1816 46.2 12.6016 45.78 12.6016 45.15V43.05C12.6016 42.42 12.1816 42 11.5516 42C10.9216 42 10.5016 42.42 10.5016 43.05V45.15C10.5015 45.7799 10.9216 46.2 11.5516 46.2Z" fill="#D8BB54"/>
<path d="M11.5516 52.4998C12.1816 52.4998 12.6016 52.0798 12.6016 51.4498V49.3498C12.6016 48.7198 12.1816 48.2998 11.5516 48.2998C10.9216 48.2998 10.5016 48.7198 10.5016 49.3498V51.4498C10.5015 52.0797 10.9216 52.4998 11.5516 52.4998Z" fill="#D8BB54"/>
<path d="M11.5516 8.39968C12.1816 8.39968 12.6016 7.97972 12.6016 7.34971V5.24967C12.6016 4.61967 12.1816 4.19971 11.5516 4.19971C10.9216 4.19971 10.5016 4.61967 10.5016 5.24967V7.34971C10.5015 7.97959 10.9216 8.39968 11.5516 8.39968Z" fill="#D8BB54"/>
<path d="M11.5516 14.6995C12.1816 14.6995 12.6016 14.2795 12.6016 13.6495V11.5495C12.6016 10.9195 12.1816 10.4995 11.5516 10.4995C10.9216 10.4995 10.5016 10.9195 10.5016 11.5495V13.6495C10.5015 14.2794 10.9216 14.6995 11.5516 14.6995Z" fill="#D8BB54"/>
<path d="M11.5516 20.9998C12.1816 20.9998 12.6016 20.5798 12.6016 19.9498V17.8498C12.6016 17.2198 12.1816 16.7998 11.5516 16.7998C10.9216 16.7998 10.5016 17.2198 10.5016 17.8498V19.9498C10.5015 20.5797 10.9216 20.9998 11.5516 20.9998Z" fill="#D8BB54"/>
<path d="M11.5516 27.2996C12.1816 27.2996 12.6016 26.8796 12.6016 26.2496V24.1496C12.6016 23.5196 12.1816 23.0996 11.5516 23.0996C10.9216 23.0996 10.5016 23.5196 10.5016 24.1496V26.2496C10.5015 26.8795 10.9216 27.2996 11.5516 27.2996Z" fill="#D8BB54"/>
<path d="M11.5516 33.5999C12.1816 33.5999 12.6016 33.1799 12.6016 32.5499V30.4499C12.6016 29.8199 12.1816 29.3999 11.5516 29.3999C10.9216 29.3999 10.5016 29.8199 10.5016 30.4499V32.5499C10.5015 33.1798 10.9216 33.5999 11.5516 33.5999Z" fill="#D8BB54"/>
<path d="M17.8487 14.6995C18.4787 14.6995 18.8986 14.2795 18.8986 13.6495V11.5495C18.8986 10.9195 18.4787 10.4995 17.8487 10.4995C17.2187 10.4995 16.7987 10.9195 16.7987 11.5495V13.6495C16.7986 14.2794 17.2187 14.6995 17.8487 14.6995Z" fill="#D8BB54"/>
<path d="M17.8487 8.39968C18.4787 8.39968 18.8986 7.97972 18.8986 7.34971V5.24967C18.8986 4.61967 18.4787 4.19971 17.8487 4.19971C17.2187 4.19971 16.7987 4.61967 16.7987 5.24967V7.34971C16.7986 7.97959 17.2187 8.39968 17.8487 8.39968Z" fill="#D8BB54"/>
<path d="M17.8487 27.2996C18.4787 27.2996 18.8986 26.8796 18.8986 26.2496V24.1496C18.8986 23.5196 18.4787 23.0996 17.8487 23.0996C17.2187 23.0996 16.7987 23.5196 16.7987 24.1496V26.2496C16.7986 26.8795 17.2187 27.2996 17.8487 27.2996Z" fill="#D8BB54"/>
<path d="M17.8487 20.9998C18.4787 20.9998 18.8986 20.5798 18.8986 19.9498V17.8498C18.8986 17.2198 18.4787 16.7998 17.8487 16.7998C17.2187 16.7998 16.7987 17.2198 16.7987 17.8498V19.9498C16.7986 20.5797 17.2187 20.9998 17.8487 20.9998Z" fill="#D8BB54"/>
<path d="M17.8487 33.5999C18.4787 33.5999 18.8986 33.1799 18.8986 32.5499V30.4499C18.8986 29.8199 18.4787 29.3999 17.8487 29.3999C17.2187 29.3999 16.7987 29.8199 16.7987 30.4499V32.5499C16.7986 33.1798 17.2187 33.5999 17.8487 33.5999Z" fill="#D8BB54"/>
<path d="M17.8487 39.8997C18.4787 39.8997 18.8986 39.4797 18.8986 38.8497V36.7497C18.8986 36.1197 18.4787 35.6997 17.8487 35.6997C17.2187 35.6997 16.7987 36.1197 16.7987 36.7497V38.8497C16.7986 39.4796 17.2187 39.8997 17.8487 39.8997Z" fill="#D8BB54"/>
<path d="M17.8487 46.2C18.4787 46.2 18.8986 45.78 18.8986 45.15V43.05C18.8986 42.42 18.4787 42 17.8487 42C17.2187 42 16.7987 42.42 16.7987 43.05V45.15C16.7986 45.7799 17.2187 46.2 17.8487 46.2Z" fill="#D8BB54"/>
<path d="M24.1497 20.9998C24.7797 20.9998 25.1997 20.5798 25.1997 19.9498V17.8498C25.1997 17.2198 24.7797 16.7998 24.1497 16.7998C23.5197 16.7998 23.0997 17.2198 23.0997 17.8498V19.9498C23.0996 20.5797 23.5197 20.9998 24.1497 20.9998Z" fill="#D8BB54"/>
<path d="M24.1497 14.6995C24.7797 14.6995 25.1997 14.2795 25.1997 13.6495V11.5495C25.1997 10.9195 24.7797 10.4995 24.1497 10.4995C23.5197 10.4995 23.0997 10.9195 23.0997 11.5495V13.6495C23.0996 14.2794 23.5197 14.6995 24.1497 14.6995Z" fill="#D8BB54"/>
<path d="M24.1497 8.39968C24.7797 8.39968 25.1997 7.97972 25.1997 7.34971V5.24967C25.1997 4.61967 24.7797 4.19971 24.1497 4.19971C23.5197 4.19971 23.0997 4.61967 23.0997 5.24967V7.34971C23.0996 7.97959 23.5197 8.39968 24.1497 8.39968Z" fill="#D8BB54"/>
<path d="M24.1497 46.2C24.7797 46.2 25.1997 45.78 25.1997 45.15V43.05C25.1997 42.42 24.7797 42 24.1497 42C23.5197 42 23.0997 42.42 23.0997 43.05V45.15C23.0996 45.7799 23.5197 46.2 24.1497 46.2Z" fill="#D8BB54"/>
<path d="M24.1497 39.8997C24.7797 39.8997 25.1997 39.4797 25.1997 38.8497V36.7497C25.1997 36.1197 24.7797 35.6997 24.1497 35.6997C23.5197 35.6997 23.0997 36.1197 23.0997 36.7497V38.8497C23.0996 39.4796 23.5197 39.8997 24.1497 39.8997Z" fill="#D8BB54"/>
<path d="M24.1497 33.5999C24.7797 33.5999 25.1997 33.1799 25.1997 32.5499V30.4499C25.1997 29.8199 24.7797 29.3999 24.1497 29.3999C23.5197 29.3999 23.0997 29.8199 23.0997 30.4499V32.5499C23.0996 33.1798 23.5197 33.5999 24.1497 33.5999Z" fill="#D8BB54"/>
<path d="M24.1497 27.2996C24.7797 27.2996 25.1997 26.8796 25.1997 26.2496V24.1496C25.1997 23.5196 24.7797 23.0996 24.1497 23.0996C23.5197 23.0996 23.0997 23.5196 23.0997 24.1496V26.2496C23.0996 26.8795 23.5197 27.2996 24.1497 27.2996Z" fill="#D8BB54"/>
<path d="M30.4507 14.6995C31.0807 14.6995 31.5006 14.2795 31.5006 13.6495V11.5495C31.5006 10.9195 31.0807 10.4995 30.4507 10.4995C29.8207 10.4995 29.4007 10.9195 29.4007 11.5495V13.6495C29.4006 14.2794 29.8207 14.6995 30.4507 14.6995Z" fill="#D8BB54"/>
<path d="M30.4507 8.39968C31.0807 8.39968 31.5006 7.97972 31.5006 7.34971V5.24967C31.5006 4.61967 31.0807 4.19971 30.4507 4.19971C29.8207 4.19971 29.4007 4.61967 29.4007 5.24967V7.34971C29.4006 7.97959 29.8207 8.39968 30.4507 8.39968Z" fill="#D8BB54"/>
</svg>
