<svg width="102" height="48" viewBox="0 0 102 48" fill="none" xmlns="http://www.w3.org/2000/svg">
<path d="M34.0234 38H26.7969V21.6719H26.6406L20.293 37.668H15.8594L9.51172 21.6719H9.35547V38H2.12891V9.81641H11.6992L18.0078 26.2617H18.1641L24.4531 9.81641H34.0234V38ZM79.0039 18.4297C77.4023 18.5339 76.1198 19.0612 75.1562 20.0117C74.1667 20.9883 73.6719 22.2839 73.6719 23.8984C73.6719 25.513 74.1667 26.8151 75.1562 27.8047C76.1198 28.7552 77.4023 29.2826 79.0039 29.3867V18.4297ZM92.1875 23.918C92.1875 22.3034 91.6927 21.0013 90.7031 20.0117C89.7396 19.0612 88.457 18.5339 86.8555 18.4297V29.3867C88.457 29.2826 89.7396 28.7552 90.7031 27.8047C91.6927 26.8281 92.1875 25.5326 92.1875 23.918ZM78.8672 35.7148C74.7656 35.5586 71.5104 34.4714 69.1016 32.4531C66.6146 30.3568 65.3711 27.5052 65.3711 23.8984C65.3711 20.3177 66.6211 17.4727 69.1211 15.3633C71.5299 13.3451 74.7786 12.2578 78.8672 12.1016V9.03516H86.9922V12.1016C91.0938 12.2578 94.349 13.3451 96.7578 15.3633C99.2448 17.4596 100.488 20.3112 100.488 23.918C100.488 27.4987 99.2383 30.3438 96.7383 32.4531C94.3294 34.4714 91.0807 35.5586 86.9922 35.7148V38.7812H78.8672V35.7148Z" fill="#1E202C"/>
<path d="M62.9883 28.7031C62.9883 31.5286 62.0247 33.7878 60.0977 35.4805C58.1836 37.1602 55.651 38 52.5 38H39.6289V9.81641H60.6055V16.3789H47.9102V19.7578H52.1289C55.3841 19.7578 58.0013 20.5651 59.9805 22.1797C61.9857 23.8203 62.9883 25.9948 62.9883 28.7031ZM50.4883 31.75C51.7643 31.75 52.7539 31.4896 53.457 30.9688C54.1862 30.4479 54.5508 29.6862 54.5508 28.6836C54.5508 26.6263 53.1771 25.5977 50.4297 25.5977H47.9102V31.75H50.4883Z" fill="#D8BB54"/>
</svg>
