<svg width="32" height="32" viewBox="0 0 32 32" fill="none" xmlns="http://www.w3.org/2000/svg">
<path fill-rule="evenodd" clip-rule="evenodd" d="M4.33333 31H27.2983C29.14 31 30.6317 29.5083 30.6317 27.6667V4.33333C30.6317 2.49167 29.14 1 27.2983 1H4.33333C2.49167 1 1 2.49167 1 4.33333V27.6667C1 29.5083 2.49167 31 4.33333 31Z" stroke="#D8BB54" stroke-width="1.5" stroke-linecap="round" stroke-linejoin="round"/>
<path d="M30.6333 9.33333H1" stroke="#D8BB54" stroke-width="1.5" stroke-linecap="round" stroke-linejoin="round"/>
<path d="M10.2265 23.5001V23.5001C9.3915 22.0535 9.8165 20.2085 11.1998 19.2735L11.2015 19.2718C12.3115 18.5201 13.7732 18.5451 14.8565 19.3335L17.1432 20.9985C18.2265 21.7868 19.6882 21.8118 20.7982 21.0601L20.7998 21.0585C22.1832 20.1235 22.6065 18.2785 21.7732 16.8318V16.8318" stroke="#D8BB54" stroke-width="1.5" stroke-linecap="round" stroke-linejoin="round"/>
<path d="M20.7137 15.4526C23.3172 18.0561 23.3172 22.2772 20.7137 24.8807C18.1102 27.4842 13.8891 27.4842 11.2856 24.8807C8.68213 22.2772 8.68213 18.0561 11.2856 15.4526C13.8891 12.8491 18.1102 12.8491 20.7137 15.4526" stroke="#D8BB54" stroke-width="1.5" stroke-linecap="round" stroke-linejoin="round"/>
<path d="M22.667 5.16659H26.0003" stroke="#D8BB54" stroke-width="1.5" stroke-linecap="round" stroke-linejoin="round"/>
</svg>
