<svg width="40" height="40" viewBox="0 0 40 40" fill="none" xmlns="http://www.w3.org/2000/svg">
<path fill-rule="evenodd" clip-rule="evenodd" d="M24.212 15.2002H19.1237C17.9853 15.2002 17.182 14.0852 17.542 13.0069V13.0069C18.1003 11.3302 19.6687 10.2002 21.4353 10.2002H21.8987C23.6653 10.2002 25.2337 11.3302 25.792 13.0069V13.0069C26.152 14.0852 25.3487 15.2002 24.212 15.2002V15.2002Z" stroke="#D8BB54" stroke-width="1.5" stroke-linecap="round" stroke-linejoin="round"/>
<path d="M11.6554 22.105H6.66711C5.64377 22.105 4.86211 23.0183 5.02044 24.0283L5.59377 27.695C6.10044 30.9416 8.89544 33.3333 12.1804 33.3333H27.8204C31.1054 33.3333 33.9004 30.9416 34.4071 27.6966L34.9804 24.03C35.1388 23.02 34.3571 22.1066 33.3338 22.1066H20.4388" stroke="#D8BB54" stroke-width="1.5" stroke-linecap="round" stroke-linejoin="round"/>
<path d="M21.667 10.2V10C21.667 7.23833 23.9053 5 26.667 5V5C29.4287 5 31.667 7.23833 31.667 10V22.105" stroke="#D8BB54" stroke-width="1.5" stroke-linecap="round" stroke-linejoin="round"/>
<path fill-rule="evenodd" clip-rule="evenodd" d="M16.9303 28.7717H15.1753C13.2387 28.7717 11.667 27.2017 11.667 25.2633V21.9217C11.667 20.86 12.527 20 13.5887 20H18.517C19.5787 20 20.4387 20.86 20.4387 21.9217V25.2633C20.4387 27.2017 18.8687 28.7717 16.9303 28.7717Z" stroke="#D8BB54" stroke-width="1.5" stroke-linecap="round" stroke-linejoin="round"/>
<path d="M31.6669 35L29.9336 33" stroke="#D8BB54" stroke-width="1.5" stroke-linecap="round" stroke-linejoin="round"/>
</svg>
