<svg width="40" height="40" viewBox="0 0 40 40" fill="none" xmlns="http://www.w3.org/2000/svg">
<path d="M20.0003 14.93V13.6117C20.0003 12.25 20.842 11.5117 21.6853 10.945C22.5087 10.39 23.3337 9.66667 23.3337 8.33333C23.3337 6.49167 21.842 5 20.0003 5C18.1587 5 16.667 6.49167 16.667 8.33333" stroke="#D8BB54" stroke-width="1.5" stroke-linecap="round" stroke-linejoin="round"/>
<path fill-rule="evenodd" clip-rule="evenodd" d="M26.585 34.9999H13.415C11.53 34.9999 10 33.4699 10 31.5849V25.0416C10 24.0983 10.765 23.3333 11.7083 23.3333H28.2933C29.235 23.3333 30 24.0983 30 25.0416V31.5849C30 33.4699 28.47 34.9999 26.585 34.9999Z" stroke="#D8BB54" stroke-width="1.5" stroke-linecap="round" stroke-linejoin="round"/>
<path d="M30 25.6966H31.1267C33.2667 25.6966 35 23.9616 35 21.8216V21.8216C35 20.1533 33.9333 18.6733 32.35 18.1466L25.27 15.7866C21.8483 14.6466 18.15 14.6466 14.7283 15.7866L7.64833 18.1466C6.06667 18.6733 5 20.1533 5 21.8383V21.92C5 24.0083 6.69333 25.7016 8.78167 25.7016H10" stroke="#D8BB54" stroke-width="1.5" stroke-linecap="round" stroke-linejoin="round"/>
</svg>
