<svg width="82" height="82" viewBox="0 0 82 82" fill="none" xmlns="http://www.w3.org/2000/svg">
<path fill-rule="evenodd" clip-rule="evenodd" d="M39.4649 0.0282165C39.9743 0.00945943 40.4861 0 41 0C41.5139 0 42.0257 0.00945948 42.5351 0.0282165C42.9788 0.0445538 43.3252 0.417483 43.3089 0.861178C43.2925 1.30487 42.9196 1.65131 42.4759 1.63498C41.9862 1.61695 41.4942 1.60785 41 1.60785C40.5058 1.60785 40.0138 1.61695 39.5241 1.63498C39.0804 1.65131 38.7075 1.30487 38.6911 0.861178C38.6748 0.417483 39.0212 0.0445537 39.4649 0.0282165ZM49.1646 1.6254C49.263 1.19245 49.6938 0.921268 50.1268 1.0197C51.1283 1.24741 52.116 1.51179 53.0883 1.81135C53.5126 1.94209 53.7506 2.39204 53.6199 2.81635C53.4891 3.24066 53.0392 3.47865 52.6148 3.34792C51.681 3.06019 50.7324 2.80626 49.7703 2.58754C49.3374 2.48911 49.0662 2.05834 49.1646 1.6254ZM32.8354 1.6254C32.9338 2.05834 32.6626 2.48911 32.2297 2.58754C31.2676 2.80626 30.319 3.0602 29.3851 3.34792C28.9608 3.47865 28.5109 3.24066 28.3801 2.81635C28.2494 2.39204 28.4874 1.94209 28.9117 1.81135C29.884 1.51179 30.8716 1.24741 31.8732 1.0197C32.3062 0.921269 32.737 1.19245 32.8354 1.6254ZM22.9245 5.07857C23.1323 5.47094 22.9827 5.95747 22.5903 6.16527C21.7205 6.62593 20.8699 7.11824 20.0402 7.64066C19.6645 7.87724 19.1682 7.76443 18.9316 7.38871C18.695 7.013 18.8078 6.51663 19.1835 6.28006C20.0471 5.73633 20.9324 5.2239 21.8378 4.74438C22.2302 4.53658 22.7167 4.68621 22.9245 5.07857ZM7.38871 18.9316C7.76443 19.1682 7.87724 19.6645 7.64066 20.0402C7.11824 20.8699 6.62593 21.7205 6.16527 22.5903C5.95747 22.9827 5.47094 23.1323 5.07857 22.9245C4.6862 22.7167 4.53658 22.2302 4.74438 21.8378C5.2239 20.9324 5.73633 20.0471 6.28006 19.1835C6.51663 18.8078 7.013 18.695 7.38871 18.9316ZM79.1836 28.3801C79.608 28.2494 80.0579 28.4874 80.1886 28.9117C80.4882 29.884 80.7526 30.8716 80.9803 31.8732C81.0787 32.3062 80.8075 32.737 80.3746 32.8354C79.9417 32.9338 79.5109 32.6626 79.4125 32.2297C79.1937 31.2676 78.9398 30.319 78.6521 29.3851C78.5213 28.9608 78.7593 28.5109 79.1836 28.3801ZM2.81635 28.3801C3.24066 28.5109 3.47865 28.9608 3.34792 29.3851C3.06019 30.319 2.80626 31.2676 2.58754 32.2297C2.48911 32.6626 2.05834 32.9338 1.6254 32.8354C1.19245 32.737 0.921268 32.3062 1.0197 31.8732C1.24741 30.8716 1.51179 29.884 1.81135 28.9117C1.94209 28.4874 2.39204 28.2494 2.81635 28.3801ZM0.861178 38.6911C1.30487 38.7075 1.65131 39.0804 1.63498 39.5241C1.61695 40.0138 1.60785 40.5058 1.60785 41C1.60785 41.4942 1.61695 41.9862 1.63498 42.4759C1.65131 42.9196 1.30487 43.2925 0.861178 43.3089C0.417483 43.3252 0.0445537 42.9788 0.0282165 42.5351C0.00945943 42.0257 0 41.5139 0 41C0 40.4861 0.00945948 39.9743 0.0282165 39.4649C0.0445538 39.0212 0.417483 38.6748 0.861178 38.6911ZM81.1388 38.6911C81.5825 38.6748 81.9554 39.0212 81.9718 39.4649C81.9905 39.9743 82 40.4861 82 41C82 41.5139 81.9905 42.0257 81.9718 42.5351C81.9554 42.9788 81.5825 43.3252 81.1388 43.3089C80.6951 43.2925 80.3487 42.9196 80.365 42.4759C80.3831 41.9862 80.3922 41.4942 80.3922 41C80.3922 40.5058 80.3831 40.0138 80.365 39.5241C80.3487 39.0804 80.6951 38.7075 81.1388 38.6911ZM80.3746 49.1646C80.8075 49.263 81.0787 49.6938 80.9803 50.1268C80.7526 51.1283 80.4882 52.116 80.1886 53.0883C80.0579 53.5126 79.608 53.7506 79.1836 53.6199C78.7593 53.4891 78.5213 53.0392 78.6521 52.6148C78.9398 51.681 79.1937 50.7324 79.4125 49.7703C79.5109 49.3374 79.9417 49.0662 80.3746 49.1646ZM1.6254 49.1646C2.05834 49.0662 2.48911 49.3374 2.58754 49.7703C2.80626 50.7324 3.0602 51.681 3.34792 52.6149C3.47865 53.0392 3.24066 53.4891 2.81635 53.6199C2.39204 53.7506 1.94209 53.5126 1.81135 53.0883C1.51179 52.116 1.24741 51.1284 1.0197 50.1268C0.921269 49.6938 1.19245 49.263 1.6254 49.1646ZM76.9214 59.0755C77.3138 59.2833 77.4634 59.7698 77.2556 60.1622C76.7761 61.0676 76.2637 61.9529 75.7199 62.8165C75.4834 63.1922 74.987 63.305 74.6113 63.0684C74.2356 62.8318 74.1228 62.3355 74.3593 61.9598C74.8818 61.1301 75.3741 60.2795 75.8347 59.4097C76.0425 59.0173 76.5291 58.8677 76.9214 59.0755ZM5.07857 59.0755C5.47094 58.8677 5.95747 59.0173 6.16527 59.4097C6.62593 60.2795 7.11824 61.1301 7.64066 61.9598C7.87724 62.3355 7.76443 62.8318 7.38871 63.0684C7.013 63.305 6.51663 63.1922 6.28006 62.8165C5.73633 61.9529 5.2239 61.0676 4.74438 60.1622C4.53658 59.7698 4.68621 59.2833 5.07857 59.0755ZM18.9316 74.6113C19.1682 74.2356 19.6645 74.1228 20.0402 74.3593C20.8699 74.8818 21.7205 75.3741 22.5903 75.8347C22.9827 76.0425 23.1323 76.5291 22.9245 76.9214C22.7167 77.3138 22.2302 77.4634 21.8378 77.2556C20.9324 76.7761 20.0471 76.2637 19.1835 75.7199C18.8078 75.4834 18.695 74.987 18.9316 74.6113ZM63.0684 74.6113C63.305 74.987 63.1922 75.4834 62.8165 75.7199C61.9529 76.2637 61.0676 76.7761 60.1622 77.2556C59.7698 77.4634 59.2833 77.3138 59.0755 76.9214C58.8677 76.5291 59.0173 76.0425 59.4097 75.8347C60.2795 75.3741 61.1301 74.8818 61.9598 74.3593C62.3355 74.1228 62.8318 74.2356 63.0684 74.6113ZM28.3801 79.1836C28.5109 78.7593 28.9608 78.5213 29.3851 78.6521C30.319 78.9398 31.2676 79.1937 32.2297 79.4125C32.6626 79.5109 32.9338 79.9417 32.8354 80.3746C32.737 80.8075 32.3062 81.0787 31.8732 80.9803C30.8716 80.7526 29.884 80.4882 28.9117 80.1886C28.4874 80.0579 28.2494 79.608 28.3801 79.1836ZM53.6199 79.1836C53.7506 79.608 53.5126 80.0579 53.0883 80.1886C52.116 80.4882 51.1284 80.7526 50.1268 80.9803C49.6938 81.0787 49.263 80.8075 49.1646 80.3746C49.0662 79.9417 49.3374 79.5109 49.7703 79.4125C50.7324 79.1937 51.681 78.9398 52.6149 78.6521C53.0392 78.5213 53.4891 78.7593 53.6199 79.1836ZM38.6911 81.1388C38.7075 80.6951 39.0804 80.3487 39.5241 80.365C40.0138 80.3831 40.5058 80.3922 41 80.3922C41.4942 80.3922 41.9862 80.3831 42.4759 80.365C42.9196 80.3487 43.2925 80.6951 43.3089 81.1388C43.3252 81.5825 42.9788 81.9554 42.5351 81.9718C42.0257 81.9905 41.5139 82 41 82C40.4861 82 39.9743 81.9905 39.4649 81.9718C39.0212 81.9554 38.6748 81.5825 38.6911 81.1388Z" fill="#E1E1E1"/>
<path fill-rule="evenodd" clip-rule="evenodd" d="M39.4647 0.0282165C39.9741 0.00945943 40.4858 0 40.9998 0C41.5137 0 42.0254 0.00945948 42.5348 0.0282165C42.9785 0.0445538 43.325 0.417483 43.3086 0.861178C43.2923 1.30487 42.9194 1.65131 42.4757 1.63498C41.986 1.61695 41.4939 1.60785 40.9998 1.60785C40.5056 1.60785 40.0135 1.61695 39.5238 1.63498C39.0801 1.65131 38.7072 1.30487 38.6909 0.861178C38.6745 0.417483 39.021 0.0445537 39.4647 0.0282165ZM49.1644 1.6254C49.2628 1.19245 49.6936 0.921268 50.1265 1.0197C51.1281 1.24741 52.1158 1.51179 53.088 1.81135C53.5124 1.94209 53.7503 2.39204 53.6196 2.81635C53.4889 3.24066 53.0389 3.47865 52.6146 3.34792C51.6808 3.06019 50.7321 2.80626 49.7701 2.58754C49.3371 2.48911 49.0659 2.05834 49.1644 1.6254ZM32.8351 1.6254C32.9336 2.05834 32.6624 2.48911 32.2294 2.58754C31.2674 2.80626 30.3187 3.0602 29.3849 3.34792C28.9606 3.47865 28.5106 3.24066 28.3799 2.81635C28.2492 2.39204 28.4872 1.94209 28.9115 1.81135C29.8837 1.51179 30.8714 1.24741 31.873 1.0197C32.3059 0.921269 32.7367 1.19245 32.8351 1.6254ZM22.9242 5.07857C23.132 5.47094 22.9824 5.95747 22.5901 6.16527C21.7202 6.62593 20.8697 7.11824 20.04 7.64066C19.6643 7.87724 19.1679 7.76443 18.9313 7.38871C18.6948 7.013 18.8076 6.51663 19.1833 6.28006C20.0468 5.73633 20.9321 5.2239 21.8375 4.74438C22.2299 4.53658 22.7164 4.68621 22.9242 5.07857ZM79.1834 28.3801C79.6077 28.2494 80.0577 28.4874 80.1884 28.9117C80.488 29.884 80.7523 30.8716 80.9801 31.8732C81.0785 32.3062 80.8073 32.737 80.3744 32.8354C79.9414 32.9338 79.5106 32.6626 79.4122 32.2297C79.1935 31.2676 78.9396 30.319 78.6518 29.3851C78.5211 28.9608 78.7591 28.5109 79.1834 28.3801ZM81.1386 38.6911C81.5823 38.6748 81.9552 39.0212 81.9715 39.4649C81.9903 39.9743 81.9998 40.4861 81.9998 41C81.9998 41.5139 81.9903 42.0257 81.9715 42.5351C81.9552 42.9788 81.5823 43.3252 81.1386 43.3089C80.6949 43.2925 80.3484 42.9196 80.3648 42.4759C80.3828 41.9862 80.3919 41.4942 80.3919 41C80.3919 40.5058 80.3828 40.0138 80.3648 39.5241C80.3484 39.0804 80.6949 38.7075 81.1386 38.6911ZM80.3744 49.1646C80.8073 49.263 81.0785 49.6938 80.9801 50.1268C80.7523 51.1283 80.488 52.116 80.1884 53.0883C80.0577 53.5126 79.6077 53.7506 79.1834 53.6199C78.7591 53.4891 78.5211 53.0392 78.6518 52.6148C78.9396 51.681 79.1935 50.7324 79.4122 49.7703C79.5106 49.3374 79.9414 49.0662 80.3744 49.1646ZM76.9212 59.0755C77.3136 59.2833 77.4632 59.7698 77.2554 60.1622C76.7759 61.0676 76.2634 61.9529 75.7197 62.8165C75.4831 63.1922 74.9868 63.305 74.611 63.0684C74.2353 62.8318 74.1225 62.3355 74.3591 61.9598C74.8815 61.1301 75.3738 60.2795 75.8345 59.4097C76.0423 59.0173 76.5288 58.8677 76.9212 59.0755Z" fill="#D8BB54"/>
<path d="M59.9713 21.3824L43.6128 43.7718L37.7052 37.8642L59.9713 21.3824Z" fill="#D8BB54"/>
<path d="M21.2232 60.1302L43.6126 43.7717L37.705 37.8641L21.2232 60.1302Z" fill="#1E202C"/>
<path fill-rule="evenodd" clip-rule="evenodd" d="M73.2165 10.3508C75.0479 12.1822 75.0479 15.1515 73.2165 16.9828C71.3851 18.8142 68.4159 18.8142 66.5845 16.9828C64.7531 15.1515 64.7531 12.1822 66.5845 10.3508C68.4159 8.51945 71.3851 8.51945 73.2165 10.3508Z" fill="white"/>
<path d="M73.2165 10.3508C75.0479 12.1822 75.0479 15.1515 73.2165 16.9828C71.3851 18.8142 68.4159 18.8142 66.5845 16.9828C64.7531 15.1515 64.7531 12.1822 66.5845 10.3508C68.4159 8.51945 71.3851 8.51945 73.2165 10.3508" stroke="#D8BB54" stroke-width="1.40687" stroke-linecap="round" stroke-linejoin="round"/>
<path d="M69.9006 6.16366V4.28784" stroke="#D8BB54" stroke-width="1.40687" stroke-linecap="round" stroke-linejoin="round"/>
<path d="M69.9006 23.046V21.1702" stroke="#D8BB54" stroke-width="1.40687" stroke-linecap="round" stroke-linejoin="round"/>
<path d="M75.8655 7.70157L76.5314 7.03565" stroke="#D8BB54" stroke-width="1.40687" stroke-linecap="round" stroke-linejoin="round"/>
<path d="M63.2688 20.2985L63.9347 19.6326" stroke="#D8BB54" stroke-width="1.40687" stroke-linecap="round" stroke-linejoin="round"/>
<path d="M77.4062 13.6665H79.2821" stroke="#D8BB54" stroke-width="1.40687" stroke-linecap="round" stroke-linejoin="round"/>
<path d="M60.5225 13.6665H62.3983" stroke="#D8BB54" stroke-width="1.40687" stroke-linecap="round" stroke-linejoin="round"/>
<path d="M75.8655 19.6326L76.5314 20.2985" stroke="#D8BB54" stroke-width="1.40687" stroke-linecap="round" stroke-linejoin="round"/>
<path d="M63.2688 7.03565L63.9347 7.70157" stroke="#D8BB54" stroke-width="1.40687" stroke-linecap="round" stroke-linejoin="round"/>
<path d="M18.4407 67.6274C18.0089 65.2411 16.0998 63.832 13.7589 63.832C10.7816 63.832 8.62251 66.1274 8.62251 69.8093C8.62251 73.4911 10.7816 75.7865 13.7589 75.7865C16.0998 75.7865 18.0089 74.3774 18.4407 71.9911H17.0316C16.6907 73.6047 15.3043 74.4684 13.7589 74.4684C11.6452 74.4684 9.98615 72.832 9.98615 69.8093C9.98615 66.7865 11.6452 65.1502 13.7589 65.1502C15.3043 65.1502 16.6907 66.0138 17.0316 67.6274H18.4407Z" fill="#4A4A4A"/>
<path d="M69.6657 75.7865C71.9213 75.7865 73.5975 74.3718 73.5975 72.4684C73.5975 70.9911 72.7225 69.9172 71.2566 69.6729V69.582C72.4327 69.224 73.1657 68.2581 73.1657 66.9456C73.1657 65.2979 71.8645 63.832 69.7111 63.832C67.6998 63.832 66.0293 65.0706 65.9611 66.9002H67.3248C67.3759 65.7411 68.4782 65.0593 69.6884 65.0593C70.9725 65.0593 71.802 65.8377 71.802 67.0138C71.802 68.2411 70.8418 69.0365 69.4611 69.0365H68.5293V70.2865H69.4611C71.2282 70.2865 72.2111 71.1843 72.2111 72.4684C72.2111 73.7013 71.1373 74.5365 69.6429 74.5365C68.2963 74.5365 67.2282 73.8434 67.1429 72.7184H65.7111C65.7963 74.5479 67.41 75.7865 69.6657 75.7865Z" fill="#4A4A4A"/>
<path d="M10.0566 18.7644H14.2611C17.0111 18.7644 18.1475 17.4235 18.1475 15.6735C18.1475 13.8326 16.8747 12.8326 15.8066 12.7644V12.6508C16.8066 12.378 17.6929 11.7189 17.6929 10.2189C17.6929 8.5144 16.5566 7.12804 14.1247 7.12804H10.0566V18.7644ZM11.4656 17.5144V13.4689H14.3293C15.852 13.4689 16.8066 14.4917 16.8066 15.6735C16.8066 16.6962 16.102 17.5144 14.2611 17.5144H11.4656ZM11.4656 12.2417V8.37804H14.1247C15.6702 8.37804 16.352 9.19622 16.352 10.2189C16.352 11.4462 15.352 12.2417 14.0793 12.2417H11.4656Z" fill="#4A4A4A"/>
</svg>
