<svg width="399" height="836" viewBox="0 0 399 836" fill="none" xmlns="http://www.w3.org/2000/svg">
<path d="M39.5 143.5L0 179.5V127.5L38.5 93.5L53.5 103L158.5 7.5L232.5 0L338 71L355.5 59.5L398.5 87.5V139.5L355.5 111.5L338 121.5L234.5 54.5L158.5 59.5L106 104.5L53.5 149.5L39.5 143.5Z" fill="#D8BB54" fill-opacity="0.8"/>
<path opacity="0.8" d="M1 228.5V181L40 145.5L54 151.5L159 61.5L234 56.5L339 124L355.5 114L398 142V191.5L355.5 165L340 175.5L234 111.5L157.5 118L53 204L38 197L1 228.5Z" fill="#D8BB54"/>
<path opacity="0.8" d="M1 273V230L38.5 198.5L53 205.5L158 119L234 113L340.5 177.5L355.5 167L398 193V238L355.5 215L340.5 223.5L234 163L159.5 168L53 250.5L38.5 244L1 273Z" fill="#D8BB54"/>
<path opacity="0.8" d="M1 321V276L38.5 246.5L53 252.5L159.5 171L234 166L340.5 226.5L355.5 217.5L398 241V284.5L355.5 261.5L340.5 271L234 215L158.5 220L53 298.5L39.5 292.5L1 321Z" fill="#D8BB54"/>
<path opacity="0.8" d="M1 366V323.5L39.5 294.5L53 300.5L158.5 223L234 219L340.5 274.5L355.5 266L398 288V334.5L355.5 313L340.5 321.5L233.5 269.5L158.5 274L53 345L39 339.5L1 366Z" fill="#D8BB54"/>
<path opacity="0.8" d="M1 411V369L38.5 341.5L52 347.5L158.5 277L234 273L340.5 324.5L355.5 317L398 338V382L355.5 363.5L340.5 370.5L234 321.5L158.5 324.5L52.5 392.5L39 387.5L1 411Z" fill="#D8BB54"/>
<path opacity="0.8" d="M0.5 459V414.5L39 390.5L52 395.5L158.5 328L234 324L340.5 374L355.5 367L398 385.5V433L355.5 414.5L341.5 421.5L234 375L158.5 378.5L52 440L39 436L0.5 459Z" fill="#D8BB54"/>
<path opacity="0.8" d="M0.5 504V462L39 439.5L53 443L158.5 382.5L234 378.5L340.5 426L355.5 419L398 437V483L355.5 466.5L340.5 472.5L234 429L158.5 433L53 489.5L39 485L0.5 504Z" fill="#D8BB54"/>
<path opacity="0.8" d="M0.5 552.5V508L39 488.5L53 493L158.5 437L234 433L340.5 476L355.5 470.5L398 487V532L355.5 517.5L340.5 522.5L234 483.5L158.5 487.5L53 540L39 536L0.5 552.5Z" fill="#D8BB54"/>
<path opacity="0.8" d="M0.5 599.5V556L39 538.5L53 543.5L158.5 490L234 486L340.5 526L355.5 521.5L398 536.5V582L355.5 569L340.5 573.5L234 539L158.5 541.5L53 589L39 584.5L0.5 599.5Z" fill="#D8BB54"/>
<path opacity="0.8" d="M0.5 647V602L39 587L53 591.5L158.5 546L234 542L340.5 577.5L355.5 573L398 585.5V631L355.5 620.5L340.5 623L234 591.5L158.5 592.5L53 636.5L39 633.5L0.5 647Z" fill="#D8BB54"/>
<path opacity="0.8" d="M0 692.5V648.5L38.5 635.5L52.5 638.5L157 597L233.5 596L340 626L355 623L397.5 634V682L355 671.5L340 674L232 655.5L158 657L52.5 685L38.5 682L0 692.5Z" fill="#D8BB54"/>
<path opacity="0.8" d="M0 738.5V696L38.5 685.5L52.5 687.5L157 659L233.5 658L340 677.5L355 674L397.5 684.5V737L355 728.5L340 731.5L233.5 714H157L52.5 732.5L38.5 731L0 738.5Z" fill="#D8BB54"/>
<path opacity="0.8" d="M0 786.5V741.5L38.5 733L52.5 735L157 717L233.5 716L340 734L355 730.5L397.5 739.5V783L354 777L340 780L233.5 768H157L53.5 782L39.5 780.5L0 786.5Z" fill="#D8BB54"/>
<path opacity="0.8" d="M0 833.5V790L38.5 783.5L52.5 785.5L157 770H233.5L340 783.5L355 780L397.5 786V836L354 830L340 833L233.5 821H157L53.5 831.5L39.5 829.5L0 833.5Z" fill="#D8BB54"/>
</svg>
