<svg width="154" height="106" viewBox="0 0 154 106" fill="none" xmlns="http://www.w3.org/2000/svg">
<path fill-rule="evenodd" clip-rule="evenodd" d="M0 0H153V80H0V0Z" fill="#0078BF"/>
<path fill-rule="evenodd" clip-rule="evenodd" d="M154 13H121V63H131.142V23.2482H154V13Z" fill="#FEFEFE"/>
<path fill-rule="evenodd" clip-rule="evenodd" d="M110 65H24.9246C16.9752 65 13 60.941 13 52.8249V26.8476C13 18.9496 16.9752 15 24.9246 15H110V24.9351H27.1873C24.5251 24.9351 23.1854 26.2191 23.1854 28.7749V50.9797C23.1854 53.6992 24.4694 55.066 27.0225 55.066H110V65Z" fill="#D5EDFC"/>
<path fill-rule="evenodd" clip-rule="evenodd" d="M18.3895 91H17V102H19.3737L27.2252 92.2475H27.6106V102H29V91H26.6849L18.8335 100.753H18.3895V91Z" fill="#0078BF"/>
<path fill-rule="evenodd" clip-rule="evenodd" d="M33.3886 96.8351H42.6109V102H44V91H42.6109V95.4995H33.3886V91H32V102H33.3886V96.8351Z" fill="#0078BF"/>
<path fill-rule="evenodd" clip-rule="evenodd" d="M51.5644 96.6124H56.3969C57.7825 96.6124 58.5743 97.2362 58.5743 98.6159C58.5743 99.9965 57.8811 100.665 56.3969 100.665H51.5644C49.8609 100.665 49.4248 99.9965 49.4248 99.0158V98.2158C49.4248 97.192 49.7824 96.6124 51.5644 96.6124ZM48.0002 97.859V99.1946C48.0002 101.111 49.1885 102 51.2875 102H56.8325C58.0206 102 58.5742 101.111 58.5742 101.111V102H60V94.8738C60 92.4714 58.9701 91 56.3173 91H52.0196C48.673 91 48.4941 92.8498 48.4941 94.162H49.9597C49.9597 93.1606 50.0796 92.3367 52.3752 92.3367H56.1576C57.8609 92.3367 58.5741 93.3606 58.5741 94.6081V96.1449C58.5741 96.1449 58.3753 95.2768 56.7519 95.2768H51.0487C48.91 95.2768 48 96.3447 48 97.859H48.0002Z" fill="#0078BF"/>
<path fill-rule="evenodd" clip-rule="evenodd" d="M70.4682 88C70.4682 89.1555 70.0827 89.6378 67.8251 89.6378C65.3951 89.6378 65.0095 89.1556 65.0095 88H63.8896C63.8896 89.8063 64.4497 90.8554 67.7096 90.8554C71.0868 90.8554 71.5883 89.8063 71.5883 88H70.4684H70.4682ZM63.3884 91.6315H62V102H64.373L72.2244 92.8073H72.6102V102H74V91.6315H71.6842L63.8326 100.825H63.3883V91.6315H63.3884Z" fill="#0078BF"/>
<path fill-rule="evenodd" clip-rule="evenodd" d="M77 95V96H84V95H77Z" fill="#0078BF"/>
<path fill-rule="evenodd" clip-rule="evenodd" d="M86 87V102H87.4514V88.5136H98V87H86Z" fill="#0078BF"/>
<path fill-rule="evenodd" clip-rule="evenodd" d="M101.393 95.1808C101.393 93.5422 102.283 92.2935 104.336 92.2935H107.432C109.483 92.2935 110.606 93.1979 110.606 95.1808V97.5063C110.606 99.576 109.502 100.352 107.432 100.352H104.316C102.265 100.352 101.393 99.1005 101.393 97.5063V95.2007V95.1808ZM100 91.0001V106H101.393V100.502C101.47 100.632 102.187 101.643 104.182 101.643H107.934C110.779 101.643 112 99.943 112 97.5062V95.1806C112 92.9177 110.993 91 107.934 91H104.065C102.168 91 101.47 92.0129 101.393 92.1436V91H100V91.0001Z" fill="#0078BF"/>
<path fill-rule="evenodd" clip-rule="evenodd" d="M113 91.0001L118.647 101.493H119.02C117.938 104.152 117.291 104.724 115.957 104.724H115.082V106H115.584C118.124 106 118.916 105.002 119.833 102.877L125 91H123.438L119.645 100.006H119.353L114.562 91H113L113 91.0001Z" fill="#0078BF"/>
<path fill-rule="evenodd" clip-rule="evenodd" d="M126 91V102H127.389V92.3366H136.61V102H138V91H126Z" fill="#0078BF"/>
<path fill-rule="evenodd" clip-rule="evenodd" d="M142 91V102H143.388V92.3366H152.61V102H154V91H142Z" fill="#0078BF"/>
<path d="M18.3895 91H17V102H19.3737L27.2252 92.2475H27.6106V102H29V91H26.6849L18.8335 100.753H18.3895V91Z" fill="#0078BF" stroke="#0078BF" stroke-width="0.0962812" stroke-miterlimit="10"/>
<path d="M33.3886 96.8351H42.6109V102H44V91H42.6109V95.4995H33.3886V91H32V102H33.3886V96.8351Z" fill="#0078BF" stroke="#0078BF" stroke-width="0.0962812" stroke-miterlimit="10"/>
<path d="M50 96H54.8075" stroke="#0078BF" stroke-width="0.0962812" stroke-miterlimit="10"/>
<path d="M55.7402 96.6106C57.1187 96.6106 57.9064 97.1898 57.9064 98.4707C57.9064 99.7525 57.2168 100.373 55.7402 100.373" stroke="#0078BF" stroke-width="0.0962812" stroke-miterlimit="10"/>
<path d="M55.7372 100.374H50.9297" stroke="#0078BF" stroke-width="0.0962812" stroke-miterlimit="10"/>
<path d="M50.9287 100.373C49.2345 100.373 48.8008 99.7519 48.8008 98.8418" stroke="#0078BF" stroke-width="0.0962812" stroke-miterlimit="10"/>
<path d="M48.8008 98.8417V98.0994" stroke="#0078BF" stroke-width="0.0962812" stroke-miterlimit="10"/>
<path d="M48.8008 98.0986C48.8008 97.1485 49.1564 96.6106 50.9287 96.6106" stroke="#0078BF" stroke-width="0.0962812" stroke-miterlimit="10"/>
<path d="M47.3848 97.7683V99.0077" stroke="#0078BF" stroke-width="0.0962812" stroke-miterlimit="10"/>
<path d="M47.3848 99.0078C47.3848 100.786 48.5665 101.611 50.6541 101.611" stroke="#0078BF" stroke-width="0.0962812" stroke-miterlimit="10"/>
<path d="M50.6543 101.613H56.1706" stroke="#0078BF" stroke-width="0.0962812" stroke-miterlimit="10"/>
<path d="M56.1719 101.612C57.3535 101.612 57.9041 100.787 57.9041 100.787" stroke="#0078BF" stroke-width="0.0962812" stroke-miterlimit="10"/>
<path d="M57.9043 100.787V101.612H59.3227V94.9963" stroke="#0078BF" stroke-width="0.0962812" stroke-miterlimit="10"/>
<path d="M59.3219 94.9964C59.3219 92.766 58.2973 91.3999 55.6582 91.3999" stroke="#0078BF" stroke-width="0.0962812" stroke-miterlimit="10"/>
<path d="M55.6583 91.3999H51.3828" stroke="#0078BF" stroke-width="0.0962812" stroke-miterlimit="10"/>
<path d="M51.3812 91.3999C48.0529 91.3999 47.875 93.1165 47.875 94.3342" stroke="#0078BF" stroke-width="0.0962812" stroke-miterlimit="10"/>
<path d="M47.875 94.335H49.3327" stroke="#0078BF" stroke-width="0.0962812" stroke-miterlimit="10"/>
<path d="M49.332 94.3352C49.332 93.4059 49.4513 92.6414 51.7343 92.6414" stroke="#0078BF" stroke-width="0.0962812" stroke-miterlimit="10"/>
<path d="M51.7363 92.6414H55.498" stroke="#0078BF" stroke-width="0.0962812" stroke-miterlimit="10"/>
<path d="M55.5 92.6414C57.194 92.6414 57.9033 93.5915 57.9033 94.7491" stroke="#0078BF" stroke-width="0.0962812" stroke-miterlimit="10"/>
<path d="M57.9043 94.7498V96.1759" stroke="#0078BF" stroke-width="0.0962812" stroke-miterlimit="10"/>
<path d="M57.904 96.176C57.904 96.176 57.7064 95.3704 56.0918 95.3704" stroke="#0078BF" stroke-width="0.0962812" stroke-miterlimit="10"/>
<path d="M56.0916 95.3704H50.418" stroke="#0078BF" stroke-width="0.0962812" stroke-miterlimit="10"/>
<path d="M50.4168 95.3704C48.2898 95.3704 47.3848 96.3614 47.3848 97.7667" stroke="#0078BF" stroke-width="0.0962812" stroke-miterlimit="10"/>
<path d="M70.861 87.8232C70.861 88.9613 70.4673 89.4364 68.1621 89.4364C65.6809 89.4364 65.2871 88.9615 65.2871 87.8232" stroke="#0078BF" stroke-width="0.0962812" stroke-miterlimit="10"/>
<path d="M65.2896 87.8232H64.1465" stroke="#0078BF" stroke-width="0.0962812" stroke-miterlimit="10"/>
<path d="M64.1465 87.8232C64.1465 89.6024 64.7183 90.6357 68.047 90.6357C71.4955 90.6357 72.0075 89.6024 72.0075 87.8232" stroke="#0078BF" stroke-width="0.0962812" stroke-miterlimit="10"/>
<path d="M72.0044 87.8232H70.8613" stroke="#0078BF" stroke-width="0.0962812" stroke-miterlimit="10"/>
<path d="M63.6326 91.3999H62.2148V101.612H64.6379L72.655 92.5581H73.049V101.612H74.4681V91.3999H72.1034L64.0862 100.455H63.6326V91.3999Z" fill="#0078BF" stroke="#0078BF" stroke-width="0.0962812" stroke-miterlimit="10"/>
<path d="M77.2969 96.2388H83.5617V94.8738H77.2969V96.2388Z" fill="#0078BF" stroke="#0078BF" stroke-width="0.0962812" stroke-miterlimit="10"/>
<path d="M86.748 87.2646V101.612H88.1658V88.7124H98.4696V87.2646H86.748Z" fill="#0078BF" stroke="#0078BF" stroke-width="0.0962812" stroke-miterlimit="10"/>
<path d="M101.002 95.4105C101.002 93.839 101.908 92.6414 103.997 92.6414" stroke="#0078BF" stroke-width="0.0962812" stroke-miterlimit="10"/>
<path d="M104 92.6414H107.151" stroke="#0078BF" stroke-width="0.0962812" stroke-miterlimit="10"/>
<path d="M107.15 92.6414C109.237 92.6414 110.38 93.5088 110.38 95.4105" stroke="#0078BF" stroke-width="0.0962812" stroke-miterlimit="10"/>
<path d="M110.381 95.4111V97.6416" stroke="#0078BF" stroke-width="0.0962812" stroke-miterlimit="10"/>
<path d="M110.38 97.6431C110.38 99.6281 109.257 100.372 107.15 100.372" stroke="#0078BF" stroke-width="0.0962812" stroke-miterlimit="10"/>
<path d="M107.151 100.374H103.98" stroke="#0078BF" stroke-width="0.0962812" stroke-miterlimit="10"/>
<path d="M103.977 100.372C101.89 100.372 101.002 99.1721 101.002 97.6431" stroke="#0078BF" stroke-width="0.0962812" stroke-miterlimit="10"/>
<path d="M101.002 97.6416V95.4303V95.4111" stroke="#0078BF" stroke-width="0.0962812" stroke-miterlimit="10"/>
<path d="M99.5859 91.3999V105.793H101.004V100.517" stroke="#0078BF" stroke-width="0.0962812" stroke-miterlimit="10"/>
<path d="M101.002 100.517C101.081 100.642 101.81 101.612 103.84 101.612" stroke="#0078BF" stroke-width="0.0962812" stroke-miterlimit="10"/>
<path d="M103.842 101.613H107.66" stroke="#0078BF" stroke-width="0.0962812" stroke-miterlimit="10"/>
<path d="M107.66 101.613C110.556 101.613 111.799 99.9813 111.799 97.6431" stroke="#0078BF" stroke-width="0.0962812" stroke-miterlimit="10"/>
<path d="M111.801 97.6416V95.4111" stroke="#0078BF" stroke-width="0.0962812" stroke-miterlimit="10"/>
<path d="M111.799 95.4114C111.799 93.24 110.774 91.3999 107.66 91.3999" stroke="#0078BF" stroke-width="0.0962812" stroke-miterlimit="10"/>
<path d="M107.66 91.3999H103.723" stroke="#0078BF" stroke-width="0.0962812" stroke-miterlimit="10"/>
<path d="M103.721 91.3999C101.791 91.3999 101.081 92.3713 101.002 92.4967" stroke="#0078BF" stroke-width="0.0962812" stroke-miterlimit="10"/>
<path d="M101.003 92.4967V91.3999H99.5859" stroke="#0078BF" stroke-width="0.0962812" stroke-miterlimit="10"/>
<path d="M113.334 91.3999L118.673 101.612H119.026" stroke="#0078BF" stroke-width="0.0962812" stroke-miterlimit="10"/>
<path d="M119.023 101.613C118 104.201 117.388 104.758 116.127 104.758" stroke="#0078BF" stroke-width="0.0962812" stroke-miterlimit="10"/>
<path d="M116.126 104.758H115.299V105.999H115.773" stroke="#0078BF" stroke-width="0.0962812" stroke-miterlimit="10"/>
<path d="M115.773 106C118.176 106 118.925 105.028 119.791 102.96" stroke="#0078BF" stroke-width="0.0962812" stroke-miterlimit="10"/>
<path d="M119.795 102.96L124.681 91.3999H123.204L119.617 100.165H119.341L114.811 91.3999H113.334" stroke="#0078BF" stroke-width="0.0962812" stroke-miterlimit="10"/>
<path d="M126.584 91.3999V101.612H128.003V92.6408H137.42V101.612H138.839V91.3999H126.584Z" fill="#0078BF" stroke="#0078BF" stroke-width="0.0962812" stroke-miterlimit="10"/>
<path d="M141.744 91.3999V101.612H143.162V92.6408H152.577V101.612H153.996V91.3999H141.744Z" fill="#0078BF" stroke="#0078BF" stroke-width="0.0962812" stroke-miterlimit="10"/>
<path d="M5.15732 88.6463H14.5397C14.5871 88.6463 14.6285 88.6499 14.6701 88.6532L14.8772 88.6622V87.0171L14.6723 87.0077C14.6234 87.0036 14.5742 87 14.5202 87H5.13783C1.44049 87 0 88.5 0 92.351V96.4861C0 100.246 1.44049 101.711 5.13783 101.711H14.5202L14.8772 101.703V100.054L5.15732 100.068C2.43667 100.068 1.60751 99.2311 1.60751 96.4861V92.351C1.60751 89.4782 2.40402 88.6464 5.15732 88.6464V88.6463Z" fill="#0078BF"/>
</svg>
