<svg width="147" height="106" viewBox="0 0 147 106" fill="none" xmlns="http://www.w3.org/2000/svg">
<path fill-rule="evenodd" clip-rule="evenodd" d="M17.3894 80.2803V71H20V92H17.3894V82.3281H3.61115V92H1V71H3.61115V80.2803H17.3894Z" fill="#0078BF"/>
<path fill-rule="evenodd" clip-rule="evenodd" d="M33.0318 90.9002C39.529 90.9002 40.357 89.6064 40.357 82.0147C40.357 74.3646 39.5607 73.0996 33.0318 73.0996C26.4395 73.0996 25.6435 74.3646 25.6435 82.0147C25.6435 89.6064 26.5348 90.9002 33.0318 90.9002ZM33.0638 71C41.0579 71 43 72.84 43 82.0147C43 91.16 41.0579 93 33.0003 93C25.0066 93 23 91.16 23 82.0147C23 72.84 25.0065 71 33.0638 71Z" fill="#0078BF"/>
<path fill-rule="evenodd" clip-rule="evenodd" d="M49.6119 89.9543H56.8814C60.9093 89.9543 62.3881 89.5328 62.3881 86.0845C62.3881 82.6638 61.412 82.3281 57.9823 82.3281H49.6119V89.9543ZM49.6119 80.2803H57.1016C60.5952 80.2803 61.6959 79.3834 61.6959 76.383C61.6959 73.8309 60.9093 73.047 58.0767 73.047H49.6119V80.2804V80.2803ZM47 71H58.3603C62.3883 71 64.3083 72.3749 64.3083 76.1595C64.3083 78.5148 64.0565 80.1409 61.381 80.9813C64.497 81.7387 65 83.1405 65 85.9159C65 89.673 63.5529 92 59.0212 92H47V71Z" fill="#0078BF"/>
<path fill-rule="evenodd" clip-rule="evenodd" d="M77.4525 72.7381L72.3041 85.6352H82.633L77.4525 72.7381ZM75.5184 71H79.2936L88 92H85.2218L83.4756 87.6824H71.6797L69.8083 92H67L75.5185 71H75.5184Z" fill="#0078BF"/>
<path fill-rule="evenodd" clip-rule="evenodd" d="M98.3177 92H95.6829V73.0469H88V71H106V73.0469H98.3177V92Z" fill="#0078BF"/>
<path fill-rule="evenodd" clip-rule="evenodd" d="M122.44 80.2803V82.3281H110.583V89.9543H122.938V92H108V71H123V73.0469H110.583V80.2803H122.44Z" fill="#0078BF"/>
<path fill-rule="evenodd" clip-rule="evenodd" d="M129.565 80.2803H131.852L141.335 71H144.765L134.137 81.1497L146 92H142.447L131.852 82.3281H129.565V92H127V71H129.565V80.2803Z" fill="#0078BF"/>
<path fill-rule="evenodd" clip-rule="evenodd" d="M101 52H96.3659V0H101V52ZM85.0606 52H55.8417V29.982H85.0606V52ZM44.5371 52H40V0H44.5371V52ZM55.8417 0H85.0606V20.3146H55.8417V0Z" fill="#0078BF"/>
<path fill-rule="evenodd" clip-rule="evenodd" d="M0.610719 103.067C0.610719 104.042 0.732842 104.383 1.50875 104.383C2.2764 104.383 2.38971 104.051 2.38971 103.076V101.923C2.38971 100.948 2.28488 100.617 1.50875 100.617C0.741971 100.617 0.610719 100.939 0.610719 101.915V103.067ZM3 103.057C3 104.485 2.63374 105 1.50875 105C0.384197 105 0 104.485 0 103.067V101.924C0 100.498 0.392575 100 1.51756 100C2.64255 100 3 100.498 3 101.915V103.057Z" fill="#0078BF"/>
<path fill-rule="evenodd" clip-rule="evenodd" d="M4.58871 101.4V102.151C4.58871 103.122 4.78278 103.429 5.52145 103.429C6.27812 103.429 6.41021 103.165 6.41021 102.151V101.4C6.41021 100.616 6.17269 100.266 5.513 100.266C4.83544 100.266 4.58882 100.498 4.58882 101.4H4.58871ZM7 102.363C7 103.429 6.68294 104 5.52145 104C4.25475 104 4 103.429 4 101.971V100.479C4 99.1757 4.50993 98.3489 5.39869 98.3489C6.11081 98.3489 6.22556 98.3141 6.22556 98H6.74438C6.74438 98.7148 6.4101 98.8766 5.58322 98.8766C4.92364 98.8766 4.57126 99.1496 4.54526 100.351C4.73001 99.892 4.95853 99.6955 5.53045 99.6955C6.77082 99.6955 6.99989 100.148 6.99989 101.553V102.363H7Z" fill="#0078BF"/>
<path fill-rule="evenodd" clip-rule="evenodd" d="M8.57537 104.177H10.0189V100H10.5944V104.177H12.0374V100H12.6132V104.177H13V106H12.4587V104.738H8V100H8.57537V104.177Z" fill="#0078BF"/>
<path fill-rule="evenodd" clip-rule="evenodd" d="M15.4142 102.063V101.713C15.4142 100.857 15.2308 100.572 14.5133 100.572C13.8046 100.572 13.6121 100.857 13.6121 101.713V102.063H15.4141H15.4142ZM13.6122 102.634V103.076C13.6122 104.06 13.6995 104.383 14.4956 104.383C15.2044 104.383 15.4489 104.209 15.4489 103.564V103.417H16V103.564C16 104.605 15.5278 105 14.4956 105C13.3673 105 13 104.475 13 103.057V101.915C13 100.487 13.3758 100 14.5041 100C15.6327 100 16 100.498 16 101.915V102.634H13.6122V102.634Z" fill="#0078BF"/>
<path fill-rule="evenodd" clip-rule="evenodd" d="M19.2969 101.668V101.584C19.2969 100.875 19.0745 100.617 18.4782 100.617C17.7214 100.617 17.6234 100.948 17.6234 101.915V103.067C17.6234 104.033 17.7304 104.383 18.5052 104.383C19.2169 104.383 19.377 104.107 19.377 103.324V103.132H20V103.333C20 104.512 19.5463 105 18.5312 105C17.3831 105 17 104.494 17 103.067V101.924C17 100.498 17.3919 100 18.5403 100C19.5106 100 19.9203 100.414 19.9203 101.436V101.668H19.2969Z" fill="#0078BF"/>
<path fill-rule="evenodd" clip-rule="evenodd" d="M24 100V100.59H22.7814V105H22.2185V100.59H21V100H24Z" fill="#0078BF"/>
<path fill-rule="evenodd" clip-rule="evenodd" d="M24.622 104.408H25.5508C26.1916 104.408 26.3494 104.191 26.3494 103.676V103.361C26.3494 102.932 26.21 102.638 25.4763 102.638H24.622V104.408ZM24.622 102.047H25.3002C25.7927 102.047 26.21 102.027 26.21 101.601V101.219C26.21 100.752 26.0335 100.59 25.5229 100.59H24.622V102.047ZM24 100H25.5791C26.4521 100 26.8606 100.372 26.8606 101.151V101.486C26.8606 101.78 26.7212 102.247 26.1453 102.314C26.777 102.371 27 102.742 27 103.322V103.656C27 104.571 26.5823 105 25.774 105H24.0001V100H24Z" fill="#0078BF"/>
<path fill-rule="evenodd" clip-rule="evenodd" d="M28.6108 103.067C28.6108 104.042 28.7326 104.383 29.5088 104.383C30.2765 104.383 30.3899 104.051 30.3899 103.076V101.923C30.3899 100.948 30.285 100.617 29.5088 100.617C28.7416 100.617 28.6108 100.939 28.6108 101.915V103.067ZM31 103.057C31 104.485 30.6339 105 29.5088 105C28.3839 105 28 104.485 28 103.067V101.924C28 100.498 28.3926 100 29.5177 100C30.6425 100 31 100.498 31 101.915V103.057Z" fill="#0078BF"/>
<path fill-rule="evenodd" clip-rule="evenodd" d="M36.2966 101.668V101.584C36.2966 100.875 36.0742 100.617 35.4778 100.617C34.7209 100.617 34.6229 100.948 34.6229 101.915V103.067C34.6229 104.033 34.7299 104.383 35.5046 104.383C36.2167 104.383 36.3765 104.107 36.3765 103.324V103.132H37V103.333C37 104.512 36.5461 105 35.531 105C34.3824 105 34 104.494 34 103.067V101.924C34 100.498 34.3914 100 35.54 100C36.51 100 36.9199 100.414 36.9199 101.436V101.668H36.2964H36.2966Z" fill="#0078BF"/>
<path fill-rule="evenodd" clip-rule="evenodd" d="M40.6107 103.067C40.6107 104.042 40.7326 104.383 41.5084 104.383C42.2763 104.383 42.3896 104.051 42.3896 103.076L42.3899 101.923C42.3899 100.948 42.285 100.617 41.5084 100.617C40.7415 100.617 40.6107 100.939 40.6107 101.915V103.067ZM42.9999 103.057C42.9999 104.485 42.6338 105 41.5085 105C40.3838 105 40 104.485 40 103.067V101.924C40 100.498 40.3926 100 41.5177 100C42.6425 100 43 100.498 43 101.915V103.057H42.9999Z" fill="#0078BF"/>
<path fill-rule="evenodd" clip-rule="evenodd" d="M46 100V100.59H44.5155V105H44V100H46Z" fill="#0078BF"/>
<path fill-rule="evenodd" clip-rule="evenodd" d="M47.6038 102.586C47.6038 103.518 47.784 103.963 48.5586 103.963C49.1981 103.963 49.3694 103.528 49.3694 102.612V101.87C49.3694 100.947 49.1982 100.511 48.5586 100.511C47.784 100.511 47.6038 100.956 47.6038 101.895V102.586ZM47.5678 100.585C47.8739 100.18 48.234 100 48.7479 100C49.7119 100 50 100.618 50 101.97V102.637C50 103.873 49.6941 104.475 48.7297 104.475C48.2434 104.475 47.8646 104.294 47.6038 103.923V106H47V100.075H47.5678V100.585Z" fill="#0078BF"/>
<path fill-rule="evenodd" clip-rule="evenodd" d="M53.396 103.408C53.396 102.688 53.2103 102.476 52.5228 102.476C51.817 102.476 51.6497 102.708 51.6497 103.508C51.6497 104.154 51.8539 104.429 52.4485 104.429C53.1734 104.429 53.3959 104.135 53.396 103.408ZM51.1483 101.409V101.187C51.1483 100.332 51.5943 100 52.5693 100C53.6658 100 54 100.332 54 101.4V104.918H53.3775V104.475C53.1455 104.88 52.7926 105 52.2072 105C51.3993 105 51 104.614 51 103.774V103.132C51 102.32 51.4458 101.906 52.2813 101.906C52.7926 101.906 53.1455 102.016 53.3775 102.311V101.566C53.3775 100.773 53.2381 100.571 52.5416 100.571C52.0307 100.571 51.7889 100.708 51.7889 101.179V101.409H51.1483V101.409Z" fill="#0078BF"/>
<path fill-rule="evenodd" clip-rule="evenodd" d="M55.6149 102.047H57.3855V100H58V105H57.3855V102.638H55.6149V105H55V100H55.6149V102.047Z" fill="#0078BF"/>
<path fill-rule="evenodd" clip-rule="evenodd" d="M58.5418 104.171L60.2522 100H61V105H60.4582V100.781L58.7394 105H58V100H58.5418V104.171Z" fill="#0078BF"/>
<path fill-rule="evenodd" clip-rule="evenodd" d="M62.6146 100V101.257C62.6146 102.066 62.8255 102.247 63.3484 102.247C63.8906 102.247 64.1563 102.142 64.3859 101.981L64.3862 100H65V105H64.3862V102.474H64.3586C64.1936 102.733 63.973 102.838 63.1658 102.838C62.4772 102.838 62 102.485 62 101.437V100H62.6146V100Z" fill="#0078BF"/>
<path fill-rule="evenodd" clip-rule="evenodd" d="M68.4144 102.063V101.713C68.4144 100.857 68.2302 100.572 67.5135 100.572C66.804 100.572 66.6128 100.857 66.6128 101.713V102.063H68.4143H68.4144ZM66.6129 102.634V103.076C66.6129 104.06 66.7001 104.383 67.496 104.383C68.204 104.383 68.4484 104.209 68.4484 103.564V103.417H69V103.564C69 104.605 68.5279 105 67.496 105C66.3682 105 66 104.475 66 103.057V101.915C66 100.487 66.3763 100 67.504 100C68.6325 100 69 100.498 69 101.915V102.634H66.6129V102.634Z" fill="#0078BF"/>
<path fill-rule="evenodd" clip-rule="evenodd" d="M70.6141 102.047H72.385V100H73V105H72.385V102.638H70.6141V105H70V100H70.6141V102.047Z" fill="#0078BF"/>
<path fill-rule="evenodd" clip-rule="evenodd" d="M74.6152 102.047H76.385V100H77V105H76.385V102.638H74.6152V105H74V100H74.6152V102.047Z" fill="#0078BF"/>
<path fill-rule="evenodd" clip-rule="evenodd" d="M78.6095 103.067C78.6095 104.042 78.7327 104.383 79.5083 104.383C80.2758 104.383 80.3889 104.051 80.3889 103.076L80.3891 101.923C80.3891 100.948 80.2844 100.617 79.5082 100.617C78.7414 100.617 78.6094 100.939 78.6094 101.915V103.067H78.6095ZM81 103.057C81 104.485 80.6335 105 79.5083 105C78.3844 105 78 104.485 78 103.067L78.0001 101.924C78.0001 100.498 78.3917 100 79.517 100C80.6423 100 81 100.498 81 101.915V103.057Z" fill="#0078BF"/>
<path fill-rule="evenodd" clip-rule="evenodd" d="M82.997 98C82.997 98.367 83.195 98.4312 83.5475 98.4312C83.8915 98.4312 84.0124 98.3768 84.0124 98H84.3643C84.3643 98.664 84.1325 98.8348 83.5126 98.8348C82.8868 98.8348 82.6544 98.6639 82.6544 98H82.997ZM82.5421 103.219L84.2527 99.2921H85V104H84.4586V100.028L82.7395 104H82V99.2921H82.542V103.219H82.5421Z" fill="#0078BF"/>
<path fill-rule="evenodd" clip-rule="evenodd" d="M88.61 103.067C88.61 104.042 88.7325 104.383 89.5078 104.383C90.276 104.383 90.3891 104.051 90.3891 103.076V101.923C90.3891 100.948 90.2846 100.617 89.5078 100.617C88.7421 100.617 88.61 100.939 88.61 101.915V103.067ZM90.9999 103.057C90.9999 104.485 90.6328 105 89.5078 105C88.3851 105 88 104.485 88 103.067V101.924C88 100.498 88.3931 100 89.518 100C90.6416 100 91 100.498 91 101.915V103.057H90.9999Z" fill="#0078BF"/>
<path fill-rule="evenodd" clip-rule="evenodd" d="M94 100V100.59H92.781V105H92.2182V100.59H91V100H94Z" fill="#0078BF"/>
<path fill-rule="evenodd" clip-rule="evenodd" d="M95.6236 104.408H96.5522C97.192 104.408 97.3513 104.191 97.3513 103.676V103.361C97.3513 102.932 97.2114 102.638 96.4773 102.638H95.6236V104.408ZM95.6236 102.047H96.3012C96.7935 102.047 97.2114 102.027 97.2114 101.601L97.2115 101.219C97.2115 100.752 97.0343 100.59 96.5245 100.59H95.6237V102.047H95.6236ZM95.0001 100H96.58C97.4523 100 97.8609 100.372 97.8609 101.151V101.486C97.8609 101.78 97.7228 102.247 97.1463 102.314C97.7768 102.371 98 102.742 98 103.322V103.656C98 104.571 97.5821 105 96.7746 105H95V100H95.0001Z" fill="#0078BF"/>
<path fill-rule="evenodd" clip-rule="evenodd" d="M101.415 102.063V101.713C101.415 100.857 101.232 100.572 100.514 100.572C99.8048 100.572 99.6127 100.857 99.6127 101.713V102.063H101.415ZM99.6127 102.634V103.076C99.6127 104.06 99.7 104.383 100.496 104.383C101.205 104.383 101.45 104.209 101.45 103.564V103.417H102V103.564C102 104.605 101.528 105 100.496 105C99.3683 105 99 104.475 99 103.057V101.915C99 100.487 99.3769 100 100.505 100C101.633 100 102 100.498 102 101.915L102 102.634H99.6126L99.6127 102.634Z" fill="#0078BF"/>
<path fill-rule="evenodd" clip-rule="evenodd" d="M105 100V100.59H103.781V105H103.218V100.59H102V100H105Z" fill="#0078BF"/>
<path fill-rule="evenodd" clip-rule="evenodd" d="M108.297 101.668V101.584C108.297 100.875 108.075 100.617 107.478 100.617C106.721 100.617 106.623 100.948 106.623 101.915V103.067C106.623 104.033 106.73 104.383 107.504 104.383C108.216 104.383 108.377 104.107 108.377 103.324V103.132H109V103.333C109 104.512 108.546 105 107.532 105C106.383 105 106 104.494 106 103.067V101.924C106 100.498 106.392 100 107.54 100C108.511 100 108.92 100.414 108.92 101.436V101.668H108.297Z" fill="#0078BF"/>
<path fill-rule="evenodd" clip-rule="evenodd" d="M112 100V100.59H110.781V105H110.219V100.59H109V100H112Z" fill="#0078BF"/>
<path fill-rule="evenodd" clip-rule="evenodd" d="M113.622 104.408H114.552C115.192 104.408 115.35 104.191 115.35 103.676V103.361C115.35 102.932 115.21 102.638 114.476 102.638H113.622V104.408H113.622ZM113.622 102.047H114.301C114.792 102.047 115.21 102.027 115.21 101.601V101.219C115.21 100.752 115.034 100.59 114.523 100.59H113.622V102.047ZM113 100H114.579C115.452 100 115.86 100.372 115.86 101.151V101.486C115.86 101.78 115.722 102.247 115.146 102.314C115.777 102.371 116 102.742 116 103.322V103.656C116 104.571 115.582 105 114.774 105H113V100Z" fill="#0078BF"/>
<path fill-rule="evenodd" clip-rule="evenodd" d="M119.414 102.063V101.713C119.414 100.857 119.231 100.572 118.514 100.572C117.805 100.572 117.612 100.857 117.612 101.713V102.063H119.414ZM117.612 102.634V103.076C117.612 104.06 117.699 104.383 118.496 104.383C119.205 104.383 119.449 104.209 119.449 103.564V103.417H120V103.564C120 104.605 119.528 105 118.496 105C117.368 105 117 104.475 117 103.057V101.915C117 100.487 117.376 100 118.505 100C119.633 100 120 100.498 120 101.915V102.634H117.612L117.612 102.634Z" fill="#0078BF"/>
<path fill-rule="evenodd" clip-rule="evenodd" d="M121.615 102.047H123.385V100H124V105H123.385V102.638H121.615V105H121V100H121.615V102.047Z" fill="#0078BF"/>
<path fill-rule="evenodd" clip-rule="evenodd" d="M124.616 102.047H126.384V100H127V105H126.384V102.638H124.616V105H124V100H124.616V102.047Z" fill="#0078BF"/>
<path fill-rule="evenodd" clip-rule="evenodd" d="M128.609 103.067C128.609 104.042 128.732 104.383 129.509 104.383C130.276 104.383 130.389 104.051 130.389 103.076V101.923C130.389 100.948 130.284 100.617 129.509 100.617C128.741 100.617 128.609 100.939 128.609 101.915V103.067ZM131 103.057C131 104.485 130.634 105 129.509 105C128.383 105 128 104.485 128 103.067V101.924C128 100.498 128.393 100 129.517 100C130.642 100 131 100.498 131 101.915V103.057Z" fill="#0078BF"/>
<path fill-rule="evenodd" clip-rule="evenodd" d="M134.297 101.668V101.584C134.297 100.875 134.074 100.617 133.478 100.617C132.72 100.617 132.623 100.948 132.623 101.915L132.623 103.067C132.623 104.033 132.729 104.383 133.504 104.383C134.216 104.383 134.376 104.107 134.376 103.324V103.132H135V103.333C135 104.512 134.545 105 133.531 105C132.382 105 132 104.494 132 103.067V101.924C132 100.498 132.391 100 133.54 100C134.51 100 134.919 100.414 134.919 101.436V101.668H134.296H134.297Z" fill="#0078BF"/>
<path fill-rule="evenodd" clip-rule="evenodd" d="M138 100V100.59H136.782V105H136.218V100.59H135V100H138Z" fill="#0078BF"/>
<path fill-rule="evenodd" clip-rule="evenodd" d="M139.624 104.408H140.556C141.189 104.408 141.348 104.179 141.348 103.448C141.348 102.847 141.189 102.638 140.472 102.638H139.624V104.408ZM139.624 102.047H140.705C141.655 102.047 142 102.533 142 103.322V103.656C142 104.571 141.581 105 140.761 105H139V100H139.624V102.047V102.047Z" fill="#0078BF"/>
<path fill-rule="evenodd" clip-rule="evenodd" d="M144.754 103.067C144.754 104.043 144.868 104.384 145.59 104.384C146.311 104.384 146.426 104.052 146.426 103.076V101.924C146.426 100.948 146.319 100.617 145.59 100.617C144.877 100.617 144.754 100.939 144.754 101.915L144.754 103.067ZM143.549 102.063H144.18V101.924C144.18 100.498 144.541 100 145.598 100C146.664 100 147 100.498 147 101.915V103.067C147 104.494 146.656 105 145.591 105C144.533 105 144.18 104.485 144.18 103.067V102.634H143.549V104.918H143V100.083H143.549V102.063V102.063Z" fill="#0078BF"/>
</svg>
