<svg width="183" height="86" viewBox="0 0 183 86" fill="none" xmlns="http://www.w3.org/2000/svg">
<path fill-rule="evenodd" clip-rule="evenodd" d="M2.40914 60.0004V63.5209C2.40914 64.6783 3.22324 65.1245 4.19654 65.1245C4.97857 65.1245 5.79243 65.0579 6.5905 64.9427V60.0002H9V72H6.5905V66.9919C5.56899 67.1736 4.5799 67.1905 3.54249 67.1905C1.67555 67.1904 0 66.1989 0 63.4717V60H2.40926L2.40914 60.0004Z" fill="#0F539F"/>
<path fill-rule="evenodd" clip-rule="evenodd" d="M16.7255 66.6415C16.5999 65.274 15.7215 64.8449 15.0158 64.8449C13.9647 64.8446 13.4002 65.5283 13.2746 66.6418L16.7255 66.6415ZM18.9062 69.2649C18.3258 71.3163 16.6474 72 15.2041 72C12.8352 72 11 70.8395 11 67.3252C11 66.2915 11.3607 63 15.0469 63C17.4156 62.9999 18.9999 64.3198 18.9999 67.2618L19 68.1042H13.2745C13.2745 68.7556 13.4156 70.2031 15.204 70.2031C15.8314 70.203 16.4592 69.8692 16.6311 69.2652L18.9059 69.2649H18.9062Z" fill="#0F539F"/>
<path fill-rule="evenodd" clip-rule="evenodd" d="M28.9999 63.0001V71.8028H26.6456V64.8492H24.1241V67.5654C24.1241 70.9355 23.0885 72 21.4356 72C21.0183 71.9999 20.3502 71.9341 20 71.8028V70.0851C20.0498 70.1173 20.3502 70.1503 20.701 70.1503C21.4025 70.1502 21.7698 69.8067 21.7698 67.123V63H29L28.9999 63.0001Z" fill="#0F539F"/>
<path fill-rule="evenodd" clip-rule="evenodd" d="M36.6206 64.623H34.8651C34.0549 64.623 33.4641 65.0747 33.4641 65.761C33.4643 66.5467 33.9874 66.8983 34.8651 66.8983H36.6206V64.623ZM38.9999 72H36.6206V68.4541H35.5907L33.768 72H31L33.2111 68.2363C32.4179 68.0522 31.135 67.3667 31.135 65.7104C31.135 63.9037 32.4179 63.0001 34.7297 63.0001L39 63V71.9999L38.9999 72Z" fill="#0F539F"/>
<path fill-rule="evenodd" clip-rule="evenodd" d="M42.4581 68.3874C42.4581 69.5667 42.8819 70.9674 44.4918 70.9674C46.0851 70.9674 46.5424 69.5495 46.5424 68.3714C46.5424 67.1919 46.102 65.8431 44.5762 65.8431C42.9831 65.8428 42.4579 67.1581 42.4579 68.3876L42.4581 68.3874ZM44.7289 63.9122C46.966 63.9122 49 65.0739 49 68.1657C49.0001 71.3601 47.1356 73 44.4917 73C41.7457 73 40 71.2407 40 67.8749C40 64.3219 40.7629 61.7944 44.017 61.0085C45.5765 60.632 46.5084 60.5811 46.6612 60.0001L48.4747 60C48.2036 61.5378 47.1866 62.2382 45.3732 62.5286C43.4237 62.8358 41.9999 63.5878 41.8308 65.8431C42.3728 64.7657 43.4237 63.9127 44.7287 63.9123L44.7289 63.9122Z" fill="#0F539F"/>
<path fill-rule="evenodd" clip-rule="evenodd" d="M59.4284 64.3729C59.224 63.6246 58.8157 62.1779 56.6875 62.1779C55.4447 62.1778 53.5717 63.0632 53.5717 66.5513C53.5717 68.7628 54.5075 70.8224 56.6875 70.8224C58.1175 70.8221 59.122 69.9544 59.4284 68.4402H62C61.4891 71.1282 59.7354 73 56.6363 73C53.35 72.9999 51 70.771 51 66.5173C51 62.1951 53.4858 60 56.6703 60C60.3654 60 61.8642 62.5526 62 64.373L59.4284 64.3729Z" fill="#0F539F"/>
<path fill-rule="evenodd" clip-rule="evenodd" d="M64.7768 72V64.8905H62V63H70V64.8905H67.224V72H64.7768Z" fill="#0F539F"/>
<path fill-rule="evenodd" clip-rule="evenodd" d="M73.3407 67.8579C73.3407 68.9419 73.7876 70.6178 75.3539 70.6178C76.9027 70.6176 77.5046 69.3477 77.5046 67.9944C77.5046 66.5376 77.0914 65.0651 75.4227 65.0651C73.8739 65.0648 73.3408 66.4191 73.3408 67.8578L73.3407 67.8579ZM73.3407 64.5572H73.375C73.8226 63.8466 74.493 63 76.128 63C78.1762 62.9999 80 64.5745 80 67.7231C80 70.2103 78.8298 72.581 76.0761 72.581C74.3733 72.581 73.7707 71.6674 73.4779 71.1761L73.426 71.1592V76H71V63.2369H73.3407V64.5572Z" fill="#0F539F"/>
<path fill-rule="evenodd" clip-rule="evenodd" d="M83.377 67.4842C83.377 68.5816 83.7213 70.108 85.5084 70.108C87.2954 70.108 87.6231 68.5973 87.6231 67.5001C87.6231 66.4027 87.2954 64.8926 85.5084 64.8926C83.7213 64.8926 83.377 66.3873 83.377 67.4841V67.4842ZM90 67.4842C90 70.5688 87.8688 72 85.5084 72C83.1473 72 81 70.5849 81 67.5001C81 64.415 83.1473 63 85.5084 63C87.8688 62.9999 90 64.3995 90 67.4841V67.4842Z" fill="#0F539F"/>
<path fill-rule="evenodd" clip-rule="evenodd" d="M99.0806 59C99.0164 59.7886 98.6124 61.5385 96.1773 61.5385C94 61.5385 93.629 59.703 93.581 59H94.6611C94.7419 59.4627 94.9028 60.2172 96.2743 60.2172C97.032 60.2172 97.8383 60.1318 98.0163 59H99.0806ZM94.2739 68.6206L97.5639 62.7728H100V72H97.7261V66.134L94.4359 72H92V62.7728H94.2739V68.6206Z" fill="#0F539F"/>
<path fill-rule="evenodd" clip-rule="evenodd" d="M104.592 64.876L109.345 60H112.709L107.629 64.9092L113 72H109.653L105.811 66.7274L104.592 67.9339V72H102V60H104.592V64.876Z" fill="#0F539F"/>
<path fill-rule="evenodd" clip-rule="evenodd" d="M115.377 67.4842C115.377 68.5816 115.722 70.108 117.508 70.108C119.295 70.108 119.623 68.5973 119.623 67.5001C119.623 66.4027 119.295 64.8926 117.508 64.8926C115.722 64.8926 115.377 66.3873 115.377 67.4841V67.4842ZM122 67.4842C122 70.5688 119.868 72 117.508 72C115.148 72 113 70.5849 113 67.5001C113 64.415 115.148 63 117.508 63C119.868 62.9999 122 64.3995 122 67.4841V67.4842Z" fill="#0F539F"/>
<path fill-rule="evenodd" clip-rule="evenodd" d="M128.968 69.1221H129.032L130.879 63H134V72H131.85V66.48C131.85 65.9949 131.914 65.426 131.914 65.426L131.85 65.4258L129.827 72H128.172L126.149 65.4258H126.086C126.086 65.4258 126.149 65.9951 126.149 66.4801V72H124V63H127.105L128.968 69.1221H128.968Z" fill="#0F539F"/>
<path fill-rule="evenodd" clip-rule="evenodd" d="M144 63V72H141.665V64.8905H138.335V72H136V63H144Z" fill="#0F539F"/>
<path fill-rule="evenodd" clip-rule="evenodd" d="M155 63.0001V71.8028H152.645V64.8492H150.124V67.5654C150.124 70.9355 149.088 72 147.436 72C147.018 71.9999 146.351 71.9341 146 71.8028V70.0851C146.05 70.1173 146.351 70.1503 146.701 70.1503C147.403 70.1502 147.77 69.8067 147.77 67.123L147.77 63H155L155 63.0001Z" fill="#0F539F"/>
<path fill-rule="evenodd" clip-rule="evenodd" d="M161.725 66.6415C161.601 65.274 160.721 64.8449 160.016 64.8449C158.965 64.8446 158.401 65.5283 158.275 66.6418L161.725 66.6415ZM163.906 69.2649C163.326 71.3163 161.647 72 160.204 72C157.834 72 156 70.8395 156 67.3252C156 66.2915 156.36 63 160.046 63C162.416 62.9999 164 64.3198 164 67.2618V68.1042H158.275C158.275 68.7556 158.416 70.2031 160.204 70.2031C160.831 70.203 161.459 69.8692 161.631 69.2652L163.906 69.2649H163.906Z" fill="#0F539F"/>
<path fill-rule="evenodd" clip-rule="evenodd" d="M168.27 66.4129L171.135 63H173.92L170.878 66.48L174 72H171.28L169.22 68.1358L168.27 69.157V72H166V63H168.27V66.4129Z" fill="#0F539F"/>
<path fill-rule="evenodd" clip-rule="evenodd" d="M177.776 72V64.8905H175V63H183V64.8905H180.225V72H177.776Z" fill="#0F539F"/>
<path fill-rule="evenodd" clip-rule="evenodd" d="M5.14529 80.4845C5.21793 79.8763 5.6814 79 7.02712 79C8.11799 78.9999 8.84563 79.5991 8.84563 80.3506C8.84563 80.9672 8.40893 81.2897 8.00878 81.3969C8.43641 81.5399 9 81.8351 9 82.6313C9 83.5075 8.13663 84 7.08196 84C5.49083 84 5.09081 83.2215 5 82.3807H5.79073C5.86349 83.043 6.20891 83.3106 7.0454 83.3106C7.63624 83.3106 8.16363 83.0785 8.16363 82.5235C8.16363 81.969 7.71808 81.7365 7.12713 81.7365L6.64538 81.7364V81.1107H7.08208C7.78177 81.1107 8.0089 80.8516 8.0089 80.3773C8.0089 79.8582 7.48199 79.6884 7.02712 79.6884C6.3456 79.6882 6.02754 79.9392 5.91822 80.4847L5.14529 80.4846V80.4845Z" fill="#0F539F"/>
<path fill-rule="evenodd" clip-rule="evenodd" d="M14.5242 81.4499C14.3832 81.5485 14.1627 81.6205 13.0582 81.7459C12.6162 81.7989 11.9135 81.9068 11.9135 82.5059C11.9135 83.0247 12.2249 83.3375 12.8877 83.3375C13.7208 83.3374 14.5243 82.8633 14.5243 82.2286V81.4498L14.5242 81.4499ZM11.2611 80.5742C11.2611 79.4376 12.1343 79 13.4497 79C13.8715 78.9999 15.4172 79.1073 15.4172 80.3236V83.0248C15.4172 83.2212 15.5279 83.3201 15.7084 83.3201C15.7888 83.32 15.8991 83.302 16 83.284V83.8654C15.8492 83.9011 15.7186 83.9543 15.5178 83.9543C14.7246 83.9542 14.6145 83.5883 14.5739 83.2304C14.2227 83.5612 13.6908 84 12.6566 84C11.6829 84 11 83.454 11 82.6313C11 82.0676 11.161 81.2354 13.028 81.1107C14.4234 81.0124 14.5243 80.9141 14.5243 80.4217C14.5243 79.9033 14.1324 79.6612 13.2892 79.6612C12.2754 79.6611 12.1344 80.2163 12.0845 80.5742H11.2614H11.2611Z" fill="#0F539F"/>
<path fill-rule="evenodd" clip-rule="evenodd" d="M17.8075 81.1738L19.866 79H20.8909L19.0592 80.8623L21 84H20.0385L18.4877 81.4477L17.8075 82.1099V84H17V79H17.8075V81.1738Z" fill="#0F539F"/>
<path fill-rule="evenodd" clip-rule="evenodd" d="M23.7708 81.5842C23.7708 82.6535 24.1604 83.4804 25.0003 83.4804C25.4849 83.4804 26.2121 83.1277 26.2121 81.8166C26.2123 81.0078 26.1342 79.7437 25.026 79.7437C23.8312 79.7437 23.7707 80.9426 23.7707 81.5841L23.7708 81.5842ZM23 79.1388H23.7191V79.8361C23.9698 79.4373 24.3074 79 25.1039 79C26.316 78.9999 27 80.0594 27 81.4545C27 82.6258 26.567 84.197 25.0086 84.197C24.3943 84.197 23.9876 83.8807 23.7709 83.4804V86H23.0001V79.1388H23Z" fill="#0F539F"/>
<path fill-rule="evenodd" clip-rule="evenodd" d="M36 83.9996H35.1037V79H36V83.9996ZM30.8959 83.3005H32.1744C32.9895 83.3005 33.2717 83.0638 33.2717 82.5066C33.2717 81.9867 32.8997 81.7131 32.1744 81.7131L30.8959 81.713V83.3005ZM30.8959 81.0133H32.1643C33.5233 81.0133 34.1876 81.6744 34.1876 82.5538C34.1876 83.3287 33.6239 84 32.1846 84L30 83.9998V79.0001H30.8959V81.0134V81.0133Z" fill="#0F539F"/>
<path fill-rule="evenodd" clip-rule="evenodd" d="M41 79V79.6995H39.4073V84H38.5928V79.6995H37V79H41Z" fill="#0F539F"/>
<path fill-rule="evenodd" clip-rule="evenodd" d="M45.5001 83.3106C46.7958 83.3106 47.0715 82.1306 47.0715 81.4959C47.0715 80.8605 46.7959 79.6883 45.5001 79.6883C44.2041 79.6882 43.9288 80.8606 43.9288 81.4959C43.9288 82.1306 44.204 83.3106 45.5001 83.3106ZM45.5001 79C47.2245 79 48 80.2789 48 81.4959C48 82.7114 47.2242 84 45.5001 84C43.7756 84 43 82.7115 43 81.4959C43 80.279 43.7756 79.0001 45.5001 79Z" fill="#0F539F"/>
<path fill-rule="evenodd" clip-rule="evenodd" d="M53.0517 81.1287C52.9996 80.3952 52.6352 79.7155 51.5001 79.7155C50.6564 79.7155 49.9898 80.3953 49.9898 81.1288L53.0517 81.1287ZM53.9262 82.3806C53.7179 83.1138 53.1459 84 51.4478 84C49.9064 84 49 82.9978 49 81.6296C49 80.1534 49.8125 79 51.6352 79C53.2182 78.9999 54 80.091 54 81.7635H49.99C49.99 82.7386 50.5208 83.3107 51.5836 83.3107C52.4478 83.3107 52.9997 82.7296 52.9997 82.3807H53.9264L53.9262 82.3806Z" fill="#0F539F"/>
<path fill-rule="evenodd" clip-rule="evenodd" d="M62.5243 81.4499C62.3837 81.5485 62.1622 81.6205 61.0575 81.7459C60.6162 81.7989 59.9134 81.9068 59.9134 82.5059C59.9134 83.0247 60.2247 83.3375 60.8877 83.3375C61.7204 83.3374 62.5244 82.8633 62.5244 82.2286V81.4498L62.5243 81.4499ZM59.2604 80.5742C59.2604 79.4376 60.1338 79 61.4498 79C61.8714 78.9999 63.4173 79.1073 63.4173 80.3236V83.0248C63.4173 83.2212 63.5283 83.3201 63.7089 83.3201C63.7889 83.32 63.8997 83.302 63.9999 83.284L64 83.8654C63.8496 83.9011 63.7192 83.9543 63.5181 83.9543C62.7244 83.9542 62.6143 83.5883 62.5738 83.2304C62.2224 83.5612 61.6901 84 60.6562 84C59.6821 84 59 83.454 59 82.6313C59 82.0676 59.1605 81.2354 61.0279 81.1107C62.4236 81.0124 62.5244 80.9141 62.5244 80.4217C62.5244 79.9033 62.1327 79.6612 61.2897 79.6612C60.2748 79.6611 60.1339 80.2163 60.084 80.5742H59.2606H59.2604Z" fill="#0F539F"/>
<path fill-rule="evenodd" clip-rule="evenodd" d="M65.8075 81.1738L67.8661 79H68.8912L67.0591 80.8623L69 84H68.0385L66.4877 81.4477L65.8075 82.1099V84H65V79H65.8075V81.1738Z" fill="#0F539F"/>
<path fill-rule="evenodd" clip-rule="evenodd" d="M71.9195 83.6569H74.4818V79H75.4005V83.6569H76V86H75.1737V84.414H71V79H71.9195V83.6569Z" fill="#0F539F"/>
<path fill-rule="evenodd" clip-rule="evenodd" d="M78.8033 82.7429H78.8214L81.1597 79H82V84H81.1963V80.2573H81.1779L78.8391 84H78V79H78.8033V82.7429Z" fill="#0F539F"/>
<path fill-rule="evenodd" clip-rule="evenodd" d="M86.5 83.3106C87.796 83.3106 88.071 82.1306 88.071 81.4959C88.071 80.8605 87.7961 79.6883 86.5 79.6883C85.2039 79.6882 84.9281 80.8606 84.9281 81.4959C84.9281 82.1306 85.2037 83.3106 86.5 83.3106ZM86.5 79C88.2245 79 89 80.2789 89 81.4959C89 82.7114 88.2245 84 86.5 84C84.7755 84 84 82.7115 84 81.4959C84 80.279 84.7755 79.0001 86.5 79Z" fill="#0F539F"/>
<path fill-rule="evenodd" clip-rule="evenodd" d="M90.8378 81.0134H93.1622V79H94V84H93.1622V81.7131H90.8378V84H90V79H90.8378V81.0134Z" fill="#0F539F"/>
<path fill-rule="evenodd" clip-rule="evenodd" d="M100.052 81.1287C99.9999 80.3952 99.6355 79.7155 98.5001 79.7155C97.6566 79.7155 96.9897 80.3953 96.9897 81.1288L100.052 81.1287ZM100.926 82.3806C100.719 83.1138 100.146 84 98.4481 84C96.9062 84 96 82.9978 96 81.6296C96 80.1534 96.8134 79 98.6355 79C100.218 78.9999 101 80.091 101 81.7635H96.9898C96.9898 82.7386 97.5211 83.3107 98.5837 83.3107C99.4476 83.3107 100 82.7296 100 82.3807H100.926L100.926 82.3806Z" fill="#0F539F"/>
<path fill-rule="evenodd" clip-rule="evenodd" d="M103.77 81.5842C103.77 82.6535 104.16 83.4804 105 83.4804C105.485 83.4804 106.211 83.1277 106.211 81.8166C106.211 81.0078 106.134 79.7437 105.025 79.7437C103.831 79.7437 103.77 80.9426 103.77 81.5841L103.77 81.5842ZM103 79.1388H103.719V79.8361C103.97 79.4373 104.307 79 105.104 79C106.316 78.9999 107 80.0594 107 81.4545C107 82.6258 106.567 84.197 105.008 84.197C104.394 84.197 103.987 83.8807 103.77 83.4804V86H103V79.1388H103Z" fill="#0F539F"/>
<path fill-rule="evenodd" clip-rule="evenodd" d="M109.838 81.0134H112.162V79H113V84H112.162V81.7131H109.838V84H109V79H109.838V81.0134Z" fill="#0F539F"/>
<path fill-rule="evenodd" clip-rule="evenodd" d="M117.5 83.3106C118.796 83.3106 119.071 82.1306 119.071 81.4959C119.071 80.8605 118.796 79.6883 117.5 79.6883C116.204 79.6882 115.929 80.8606 115.929 81.4959C115.929 82.1306 116.204 83.3106 117.5 83.3106ZM117.5 79C119.225 79 120 80.2789 120 81.4959C120 82.7114 119.225 84 117.5 84C115.775 84 115 82.7115 115 81.4959C115 80.279 115.775 79.0001 117.5 79Z" fill="#0F539F"/>
<path fill-rule="evenodd" clip-rule="evenodd" d="M126.052 81.1287C126 80.3952 125.635 79.7155 124.5 79.7155C123.657 79.7155 122.99 80.3953 122.99 81.1288L126.052 81.1287ZM126.927 82.3806C126.718 83.1138 126.146 84 124.448 84C122.906 84 122 82.9978 122 81.6296C122 80.1534 122.813 79 124.635 79C126.219 78.9999 127 80.091 127 81.7635H122.99C122.99 82.7386 123.521 83.3107 124.583 83.3107C125.448 83.3107 126 82.7296 126 82.3807H126.927V82.3806Z" fill="#0F539F"/>
<path fill-rule="evenodd" clip-rule="evenodd" d="M134.5 83.3106C135.796 83.3106 136.071 82.1306 136.071 81.4959C136.071 80.8605 135.796 79.6883 134.5 79.6883C133.205 79.6882 132.929 80.8606 132.929 81.4959C132.929 82.1306 133.204 83.3106 134.5 83.3106ZM134.5 79C136.225 79 137 80.2789 137 81.4959C137 82.7114 136.225 84 134.5 84C132.776 84 132 82.7115 132 81.4959C132 80.279 132.776 79.0001 134.5 79Z" fill="#0F539F"/>
<path fill-rule="evenodd" clip-rule="evenodd" d="M142.073 81.4308C142.073 80.9017 141.808 79.6551 140.505 79.6551C139.385 79.655 138.927 80.6848 138.927 81.4308C138.927 82.2142 139.191 83.2722 140.505 83.2722C141.818 83.2722 142.073 81.9597 142.073 81.4308ZM142.664 77.0001C142.276 77.9356 141.696 78.0301 140.851 78.1337C139.67 78.2759 139.039 78.8428 138.784 79.9101C139.223 79.3429 139.946 78.9554 140.678 78.9554C142.184 78.9553 143 80.1743 143 81.4306C143 82.687 142.226 84 140.423 84C139.039 84 138 83.1116 138 80.8164C138 79.0594 138.855 77.7281 140.535 77.4921C141.492 77.3589 141.696 77.2936 141.839 77.0002L142.664 77V77.0001Z" fill="#0F539F"/>
<path fill-rule="evenodd" clip-rule="evenodd" d="M145.808 83.6569H147.827V79H148.637V83.6569H150.655V79H151.463V83.6569H152V86H151.264V84.414H145V79H145.808V83.6569Z" fill="#0F539F"/>
<path fill-rule="evenodd" clip-rule="evenodd" d="M158.052 81.1287C158 80.3952 157.636 79.7155 156.5 79.7155C155.657 79.7155 154.99 80.3953 154.99 81.1288L158.052 81.1287ZM158.926 82.3806C158.718 83.1138 158.145 84 156.448 84C154.907 84 154 82.9978 154 81.6296C154 80.1534 154.814 79 156.636 79C158.218 78.9999 159 80.091 159 81.7635H154.99C154.99 82.7386 155.521 83.3107 156.584 83.3107C157.447 83.3107 158 82.7296 158 82.3807H158.926L158.926 82.3806Z" fill="#0F539F"/>
<path fill-rule="evenodd" clip-rule="evenodd" d="M163.237 80.726C163.139 80.0907 162.794 79.7154 162.129 79.7154C161.153 79.7154 160.843 80.6544 160.843 81.4958C160.843 82.3087 161.038 83.3106 162.12 83.3106C162.651 83.3106 163.104 82.9176 163.237 82.1925H164C163.92 82.944 163.468 84 162.093 84C160.781 84 160 82.9978 160 81.6296C160 80.1715 160.701 79 162.244 79C163.476 78.9999 163.938 79.9034 164 80.7261H163.237L163.237 80.726Z" fill="#0F539F"/>
<path fill-rule="evenodd" clip-rule="evenodd" d="M169 79V79.6995H167.407V84H166.593V79.6995H165V79H169Z" fill="#0F539F"/>
<path fill-rule="evenodd" clip-rule="evenodd" d="M171.802 83.3007H173.235C173.856 83.3007 174.198 83.0831 174.198 82.526C174.198 81.9869 173.802 81.7324 173.152 81.7324L171.802 81.7323V83.3009L171.802 83.3007ZM171.802 81.0702H172.964C173.657 81.0702 173.919 80.8624 173.919 80.3142C173.919 79.9175 173.685 79.6998 172.983 79.6998L171.802 79.6996V81.0702ZM171 79.0001H173.162C174.216 79.0001 174.721 79.5862 174.721 80.2767C174.721 80.8715 174.335 81.2307 173.919 81.3541C174.424 81.4763 175 81.8164 175 82.6766C175 83.4706 174.388 84 173.253 84L171 83.9998V79V79.0001Z" fill="#0F539F"/>
<path fill-rule="evenodd" clip-rule="evenodd" d="M179.5 83.3106C180.797 83.3106 181.072 82.1306 181.072 81.4959C181.072 80.8605 180.797 79.6883 179.5 79.6883C178.204 79.6882 177.927 80.8606 177.927 81.4959C177.927 82.1306 178.204 83.3106 179.5 83.3106ZM179.5 79C181.225 79 182 80.2789 182 81.4959C182 82.7114 181.225 84 179.5 84C177.775 84 177 82.7115 177 81.4959C177 80.279 177.775 79.0001 179.5 79Z" fill="#0F539F"/>
<path fill-rule="evenodd" clip-rule="evenodd" d="M121 27.2845L91.0004 1L61 27.2845H73.6395V50H108.362V27.2845H121Z" fill="#0F539F"/>
<path fill-rule="evenodd" clip-rule="evenodd" d="M122 27L103.73 10.6532L103 10L122 27Z" fill="#4AC2F0"/>
<path fill-rule="evenodd" clip-rule="evenodd" d="M122 26.9999H109.258V16.047V15.8288L103.751 11L122 26.9999ZM91.7544 26.9999H85.8726V16.5901L91.8993 11.3063V16.0472H91.7544V27V26.9999ZM74.1073 26.9999H74L74.1073 26.9059V26.9999Z" fill="#009BDB"/>
<path fill-rule="evenodd" clip-rule="evenodd" d="M103 11L98.0331 6.48565L92 1.00143V1L103 11Z" fill="#7EB3E1"/>
<path fill-rule="evenodd" clip-rule="evenodd" d="M108 50H107.976V40.8393H91V27.2259H108V50ZM91.1407 11.631V1L97.0658 6.31569L91.1407 11.631Z" fill="#006BB4"/>
<path fill-rule="evenodd" clip-rule="evenodd" d="M104 11L98 6L103.24 10.3661L104 11Z" fill="#009AD9"/>
<path fill-rule="evenodd" clip-rule="evenodd" d="M108 27H91V16.0694H91.1407V11.3381L97.0658 6L102.652 11.0324L108 15.8516V16.0694V27Z" fill="#008BCF"/>
<path fill-rule="evenodd" clip-rule="evenodd" d="M74 16L85.9987 6H86L74 16Z" fill="#FEFEFE"/>
<path fill-rule="evenodd" clip-rule="evenodd" d="M86 41H74.1457V27.3124H86V41ZM74 27.2185V16.2749L74.1836 16.117L85.9631 6H86V16.9116L74 27.2185Z" fill="#7F92C9"/>
<path fill-rule="evenodd" clip-rule="evenodd" d="M86 27H74.1459H74V26.9097L86 17V27Z" fill="#86C4EC"/>
<path fill-rule="evenodd" clip-rule="evenodd" d="M109 50H74V41H74.0254V49.9939H85.6448H91.5251H109V50Z" fill="#4AC2F0"/>
<path fill-rule="evenodd" clip-rule="evenodd" d="M92 50H86V41H92V50Z" fill="#009BDB"/>
<path fill-rule="evenodd" clip-rule="evenodd" d="M108 50H91V41H108V50Z" fill="#009FDE"/>
<path fill-rule="evenodd" clip-rule="evenodd" d="M86 50H74V41H86V50Z" fill="#00AAE4"/>
<path fill-rule="evenodd" clip-rule="evenodd" d="M122.193 26.8449L122.392 26.6166L92.0008 0L61 27.1486H74.2255V50H109.777V27.1486H123L122.392 26.6166L122.193 26.8449V26.5412H109.172V49.3927H74.8308V26.5412H62.6143L92.0008 0.806085L121.994 27.074L122.193 26.8449V26.5412V26.8449Z" fill="#FEFEFE"/>
<path fill-rule="evenodd" clip-rule="evenodd" d="M73.7981 27.692L73.9951 27.9243L97.5001 6.81729L120.404 27.3839H73.7981V27.692L73.9951 27.9243L73.7981 27.692V28H122L97.5001 6L73 28H73.7981V27.692Z" fill="#FEFEFE"/>
<path fill-rule="evenodd" clip-rule="evenodd" d="M91.4458 0.664429L91.1446 0.663547L91 50H109V16.0177V15.8007V15.663L91.1468 0H91.1464L91.1446 0.663547L91.4458 0.664429L91.2476 0.892504L108.397 15.9382V16.0177V49.3943H91.6044L91.7472 0.665438L91.4458 0.664429L91.2476 0.892504L91.4458 0.664429Z" fill="#FEFEFE"/>
<path fill-rule="evenodd" clip-rule="evenodd" d="M85.7059 49.6945H86V5H85.6696H85.5589L74 15.4828V27.0093H74.1386V50H86V49.6945H85.7059V49.389H74.7267V26.3982H74.588V15.7607L85.8629 5.53562L85.6696 5.3054V5.61092H85.7059V5.3054H85.4118V49.6945H85.7059V49.389V49.6945Z" fill="#FEFEFE"/>
<path fill-rule="evenodd" clip-rule="evenodd" d="M74.3066 40.3097H74V50H110V40H74V40.3097H74.3066V40.6194H109.387V49.3807H74.613V40.3097H74.3066V40.6194V40.3097Z" fill="#FEFEFE"/>
</svg>
