<svg width="195" height="36" viewBox="0 0 195 36" fill="none" xmlns="http://www.w3.org/2000/svg">
<path fill-rule="evenodd" clip-rule="evenodd" d="M75.3244 19.5862V18.9027C75.3244 16.4183 74.7936 16.1453 72.3356 16.1453L67.6194 16.1452C65.4939 16.1452 64.675 16.8289 64.675 18.4245L61 18.4243C61 13.98 63.3681 13.0001 66.9997 13.0001L73.0662 13C77.5833 13 79 14.1853 79 18.7669V23.3931C79 27.6322 77.6499 29 73.3983 29H66.5564C62.0177 29 61 27.7238 61 23.5071H64.6751C64.6751 25.4438 65.4499 25.8543 67.6419 25.8543L72.3576 25.8542C74.4616 25.8542 75.3244 25.376 75.3244 22.9601V22.3444H66.1805V19.5862H75.3244Z" fill="#2B2A29"/>
<path fill-rule="evenodd" clip-rule="evenodd" d="M85.7076 19.1316H95.2916V13H99V29H95.2916V22.3139H85.7076V29H82V13H85.7076V19.1316Z" fill="#2B2A29"/>
<path fill-rule="evenodd" clip-rule="evenodd" d="M101 13H117V16.0193H104.746V19.5244H116.617V22.3139H104.746V25.9795H117V29H101V13Z" fill="#2B2A29"/>
<path fill-rule="evenodd" clip-rule="evenodd" d="M123.704 21.0921H129.886C131.76 21.0921 132.295 20.3307 132.295 18.6015C132.295 17.0339 131.828 16.1808 129.886 16.1808L123.704 16.1807V21.0922L123.704 21.0921ZM123.704 29H120V13H130.555C134.46 13 136 14.567 136 18.6014C136 22.6597 134.415 24.2738 130.599 24.2738L123.704 24.2736V28.9999V29Z" fill="#2B2A29"/>
<path fill-rule="evenodd" clip-rule="evenodd" d="M151 13V16.1804H141.627V29H138V13H151Z" fill="#2B2A29"/>
<path fill-rule="evenodd" clip-rule="evenodd" d="M157.727 25.8177H158.242L167.738 13H174V29H170.274V16.1804H169.758L160.398 29H154V13H157.727V25.8177Z" fill="#2B2A29"/>
<path fill-rule="evenodd" clip-rule="evenodd" d="M183.17 16.0193C181.465 16.0193 180.98 16.7804 180.98 18.4631C180.98 20.1694 181.671 20.9075 183.285 20.9075H191.171V16.0195H183.17V16.0193ZM184.807 23.9272L180.98 28.9999H176L180.68 23.4206C178.858 23.0053 177.152 21.0692 177.152 18.6241C177.152 14.0831 179.527 13.0003 182.847 13.0003L195 13V29H191.171V23.9273H184.807V23.9272Z" fill="#2B2A29"/>
<path fill-rule="evenodd" clip-rule="evenodd" d="M33 17.9996C33 21.866 29.8661 25 25.9995 25C22.1338 25 19 21.8661 19 17.9997C19.0001 14.134 22.1338 11 25.9995 11C29.866 11 33 14.1339 33 17.9996Z" fill="url(#paint0_radial)"/>
<path fill-rule="evenodd" clip-rule="evenodd" d="M26 0L21.6172 16H0L26 0Z" fill="#BB2221"/>
<path fill-rule="evenodd" clip-rule="evenodd" d="M26 0L14.4075 16H14L26 0Z" fill="#FEFEFE"/>
<path fill-rule="evenodd" clip-rule="evenodd" d="M7.44573 16L26 0L7 16H7.44573Z" fill="#FEFEFE"/>
<path fill-rule="evenodd" clip-rule="evenodd" d="M0 19V17H7V19H0Z" fill="#FEFEFE"/>
<path fill-rule="evenodd" clip-rule="evenodd" d="M7 17H0V19H7V17ZM6.69246 17.2971V18.7025H0.307541V17.2971H6.69246Z" fill="#8F908F"/>
<path fill-rule="evenodd" clip-rule="evenodd" d="M8 19V17H15V19H8Z" fill="#FEFEFE"/>
<path fill-rule="evenodd" clip-rule="evenodd" d="M14 17H7V19H14V17ZM13.6926 17.2971V18.7025H7.3074V17.2971H13.6926Z" fill="#8F908F"/>
<path fill-rule="evenodd" clip-rule="evenodd" d="M15 19V17H22V19H15Z" fill="#FEFEFE"/>
<path fill-rule="evenodd" clip-rule="evenodd" d="M22 17H15V19H22V17ZM21.6927 17.2971V18.7025H15.3077V17.2971H21.6927Z" fill="#8F908F"/>
<path fill-rule="evenodd" clip-rule="evenodd" d="M26 36L30.3828 19H52L26 36Z" fill="#BB2221"/>
<path fill-rule="evenodd" clip-rule="evenodd" d="M26 36L37.5921 19H38L26 36Z" fill="#FEFEFE"/>
<path fill-rule="evenodd" clip-rule="evenodd" d="M44.5547 19L26 36L45 19H44.5547Z" fill="#FEFEFE"/>
<path fill-rule="evenodd" clip-rule="evenodd" d="M44 19V17H51V19H44Z" fill="#FEFEFE"/>
<path fill-rule="evenodd" clip-rule="evenodd" d="M51 17H44V19H51V17ZM50.6926 17.2971V18.7025H44.3076V17.2971H50.6926Z" fill="#8F908F"/>
<path fill-rule="evenodd" clip-rule="evenodd" d="M37 19V17H44V19H37Z" fill="#FEFEFE"/>
<path fill-rule="evenodd" clip-rule="evenodd" d="M44 17H37V19H44V17ZM43.6924 17.2971V18.7025H37.3074V17.2971H43.6924Z" fill="#8F908F"/>
<path fill-rule="evenodd" clip-rule="evenodd" d="M30 19V17H37V19H30Z" fill="#FEFEFE"/>
<path fill-rule="evenodd" clip-rule="evenodd" d="M37 17H30V19H37V17ZM36.6926 17.2971V18.7025H30.3077V17.2971H36.6926Z" fill="#8F908F"/>
<path fill-rule="evenodd" clip-rule="evenodd" d="M25.6709 0.180992L25.5874 0.30722L50.6973 16.9008V18.7925L25.33 35.6352L0.302789 18.793V16.9014L25.7535 0.307738L25.6709 0.180992L25.5874 0.30722L25.6709 0.180992L25.5883 0.0538573L0 16.7372V18.9549L25.3288 36L51 18.9555V16.7377L25.6714 0L25.5883 0.0538573L25.6709 0.180992Z" fill="#8F908F"/>
<path fill-rule="evenodd" clip-rule="evenodd" d="M63.1064 3.53225V3.46685C63.1064 2.45605 63.3637 2.00026 64.3104 2.00026L64.7503 2C65.6826 2 66 2.41776 66 3.34297C66.0001 3.98188 65.8414 4.2881 65.2349 4.41198C65.8181 4.58828 66 4.90774 66 5.48766C66.0001 6.54999 65.7728 7 64.7351 7L64.2728 6.99987C63.2728 6.99987 63 6.55667 63 5.53328V5.3377H63.5685V5.56579C63.5685 6.28939 63.6587 6.5433 64.3337 6.5433L64.6512 6.54318C65.1973 6.54318 65.394 6.3219 65.394 5.74814V5.36353C65.394 4.82884 65.2283 4.66641 64.5757 4.66641L64.1975 4.66628V4.20971H64.5989C65.152 4.20971 65.394 4.04665 65.394 3.57762V3.25186C65.394 2.67797 65.182 2.45618 64.6667 2.45618L64.3639 2.45592C63.7198 2.45592 63.652 2.71653 63.652 3.44089V3.53213H63.1067L63.1064 3.53225Z" fill="#2B2A29"/>
<path fill-rule="evenodd" clip-rule="evenodd" d="M68.1545 6.4577L67.5238 3.6733L66.8394 6.4577H68.1544H68.1545ZM67.7919 3L69 8H68.5177L68.2677 6.92477H66.7201L66.4405 8H66L67.28 3H67.7919Z" fill="#2B2A29"/>
<path fill-rule="evenodd" clip-rule="evenodd" d="M71.3509 2.46929C70.6687 2.46929 70.5294 2.79543 70.5294 3.65639V5.35042C70.5294 6.21049 70.6621 6.53071 71.3442 6.53071H71.6492C72.3308 6.53071 72.4701 6.21087 72.4701 5.35042L72.4702 3.65626C72.4702 2.79543 72.3374 2.46929 71.6552 2.46929H71.3509ZM71.7153 2C72.656 2 73 2.52172 73 3.65639V5.35042C73 6.48496 72.656 7 71.7153 7L71.2908 6.99987C70.3509 6.99987 70 6.48496 70 5.35042V3.65626C70 2.52172 70.3509 2.00026 71.2908 2.00026L71.7153 2Z" fill="#2B2A29"/>
<path fill-rule="evenodd" clip-rule="evenodd" d="M75.5436 7.53281H76.3847C77.1304 7.53281 77.4205 7.47872 77.4205 6.89874V6.23704C77.4205 5.65667 77.1302 5.61061 76.3847 5.61061L75.5436 5.61048V7.53281ZM75 3H77.6378V3.46706H75.5436V5.14237H76.4636C77.5944 5.14237 78 5.32977 78 6.37825V6.75832C78 7.7997 77.5943 8 76.4636 8H75V3.00013V3Z" fill="#2B2A29"/>
<path fill-rule="evenodd" clip-rule="evenodd" d="M79.4072 6.45277C79.4072 7.23386 79.4882 7.50643 80.0058 7.50643C80.5172 7.50643 80.5934 7.24054 80.5934 6.46018V5.53968C80.5934 4.75917 80.5231 4.49343 80.0058 4.49343C79.4942 4.49343 79.4072 4.75162 79.4072 5.53213V6.45262V6.45277ZM81 6.44522C81 7.58716 80.7559 8 80.0058 8C79.2559 7.99985 79 7.58745 79 6.45277V5.53982C79 4.39759 79.2617 4 80.0118 4C80.7617 3.99985 81 4.39759 81 5.53227V6.44522Z" fill="#2B2A29"/>
<path fill-rule="evenodd" clip-rule="evenodd" d="M82.393 5.83356V6.45826C82.393 7.26777 82.5223 7.52412 83.0149 7.52412C83.5192 7.52412 83.6075 7.30376 83.6075 6.4584V5.83356C83.6075 5.18016 83.4489 4.88923 83.009 4.88923C82.5577 4.88895 82.3932 5.08047 82.3932 5.83356H82.393ZM83.9998 6.63579C83.9998 7.52412 83.7887 8 83.0149 8C82.1706 7.99986 82 7.52412 82 6.30888L82.0001 5.06619C82.0001 3.9806 82.3403 3.29107 82.933 3.29107C83.4077 3.29107 83.4841 3.26307 83.4841 3.00014L83.8299 3C83.8299 3.5967 83.6075 3.73167 83.056 3.73167C82.616 3.73153 82.3811 3.95861 82.3638 4.96007C82.4873 4.57716 82.6398 4.41349 83.021 4.41349C83.8474 4.41335 84 4.78968 84 5.96167V6.63593L83.9998 6.63579Z" fill="#2B2A29"/>
<path fill-rule="evenodd" clip-rule="evenodd" d="M84.4025 6.15713C84.4025 6.93305 84.5229 7.30395 85.0394 7.30395C85.4656 7.30395 85.58 6.93955 85.58 6.17745V5.55915C85.58 4.78959 85.4658 4.42574 85.0394 4.42574C84.5229 4.42574 84.4025 4.79704 84.4025 5.57946V6.157V6.15713ZM84.3785 4.48789C84.5827 4.15072 84.8232 4 85.1651 4C85.8077 3.99986 86 4.51538 86 5.64121V6.19789C86 7.22866 85.7954 7.73023 85.1536 7.73023C84.8292 7.73009 84.5771 7.57803 84.4025 7.26996V9H84V4.06134H84.3785V4.48803V4.48789Z" fill="#2B2A29"/>
<path fill-rule="evenodd" clip-rule="evenodd" d="M87.4063 6.45277C87.4063 7.23386 87.4885 7.50643 88.0057 7.50643C88.5171 7.50643 88.5928 7.24054 88.5928 6.46018V5.53968C88.5928 4.75917 88.5229 4.49343 88.0057 4.49343C87.4944 4.49343 87.4063 4.75162 87.4063 5.53213V6.45262V6.45277ZM89 6.44522C89 7.58716 88.7558 8 88.0057 8C87.2557 7.99985 87 7.58745 87 6.45277L87.0002 5.53982C87.0002 4.39759 87.2613 4 88.0115 4C88.7613 3.99985 88.9999 4.39759 88.9999 5.53227L89 6.44522Z" fill="#2B2A29"/>
<path fill-rule="evenodd" clip-rule="evenodd" d="M90.4151 6.64565H91.0344C91.4616 6.64565 91.5663 6.51432 91.5663 6.20593V6.01716C91.5663 5.76035 91.4735 5.58318 90.9845 5.58318H90.4151V6.64565ZM90.4151 5.22872H90.867C91.1954 5.22872 91.4736 5.21768 91.4736 4.96043L91.4739 4.73156C91.4739 4.45144 91.3561 4.35502 91.0162 4.35502L90.4152 4.35491V5.22872H90.4151ZM90 4.00011H91.0527C91.6347 4.00011 91.9066 4.22369 91.9066 4.69146L91.9068 4.89172C91.9068 5.06889 91.8141 5.34901 91.4308 5.38855C91.8509 5.42335 91.9998 5.64592 91.9998 5.99452L92 6.19433C92 6.7432 91.721 7 91.1829 7H90.0001V4L90 4.00011Z" fill="#2B2A29"/>
<path fill-rule="evenodd" clip-rule="evenodd" d="M94.5307 5.33362V5.26712C94.5307 4.69934 94.3827 4.49357 93.9851 4.49357C93.4802 4.49357 93.4156 4.75931 93.4156 5.53227V6.45277C93.4156 7.22559 93.4863 7.50643 94.0027 7.50643C94.4774 7.50643 94.5843 7.28483 94.5843 6.65926V6.50417H95V6.66609C95 7.60894 94.697 8 94.0202 8C93.2551 7.99985 93 7.59413 93 6.45277V5.53982C93 4.39759 93.2613 4 94.0269 4C94.6732 3.99985 94.9457 4.33166 94.9457 5.14877L94.9458 5.33362H94.5308H94.5307Z" fill="#2B2A29"/>
<path fill-rule="evenodd" clip-rule="evenodd" d="M96.3972 5.22872H96.5522L97.3888 4H97.8219L96.9017 5.35476L98 7H97.5317L96.5938 5.58307H96.3972V7H96V4H96.3972V5.22872Z" fill="#2B2A29"/>
<path fill-rule="evenodd" clip-rule="evenodd" d="M98.3612 6.50306L99.5017 4H100V7H99.6392V4.46878L98.4928 7H98V4H98.3612V6.50306Z" fill="#2B2A29"/>
<path fill-rule="evenodd" clip-rule="evenodd" d="M101.665 3C101.665 3.24506 101.796 3.28656 102.032 3.28656C102.261 3.28644 102.341 3.25072 102.341 3.00012L102.576 3C102.576 3.44203 102.422 3.5559 102.009 3.5559C101.59 3.55567 101.435 3.44227 101.435 3.00012L101.665 3H101.665ZM101.361 6.47993L102.502 3.86038H103V7H102.639V4.35098L101.493 7H101V3.86038H101.361V6.47993Z" fill="#2B2A29"/>
<path fill-rule="evenodd" clip-rule="evenodd" d="M106.07 5.119V4.99441C106.07 4.27997 106.337 4.00015 106.879 4.00015L107.18 4C107.794 4 107.959 4.4275 107.959 4.89204V5.11203C107.959 5.4874 107.865 5.79002 107.564 5.88586C107.865 5.95905 108 6.25441 108 6.59275V7.10797C108 7.77826 107.67 8 107.192 8L106.891 7.99985C106.206 7.99985 106 7.58005 106 6.76962H106.413C106.413 7.40303 106.596 7.54302 106.955 7.54302H107.121C107.481 7.54302 107.588 7.41 107.588 7.05032V6.68859C107.588 6.3276 107.481 6.10659 107.192 6.10659H106.732V5.6496H107.174C107.357 5.6496 107.545 5.56945 107.545 5.15603L107.546 4.94242C107.546 4.61076 107.428 4.45655 107.151 4.45655H106.95C106.602 4.45655 106.483 4.58912 106.483 4.99441V5.11871H106.07L106.07 5.119Z" fill="#2B2A29"/>
<path fill-rule="evenodd" clip-rule="evenodd" d="M110.597 6.72543C110.597 6.15095 110.473 5.98163 110.016 5.98163C109.545 5.98163 109.433 6.16518 109.433 6.80632C109.433 7.32169 109.569 7.54329 109.965 7.54329C110.449 7.54329 110.597 7.30746 110.597 6.72543ZM109.099 5.12775V4.94957C109.099 4.26502 109.396 4 110.046 4C110.777 3.99985 111 4.26502 111 5.1189V7.93349H110.585V7.58003C110.431 7.90329 110.195 8 109.805 8C109.266 7.99985 109 7.68996 109 7.02051V6.50412C109 5.85573 109.297 5.52391 109.854 5.52391C110.195 5.52391 110.431 5.61307 110.585 5.8489V5.25264C110.585 4.61891 110.492 4.45656 110.028 4.45656C109.687 4.45656 109.526 4.56678 109.526 4.94275V5.12746H109.099V5.12775Z" fill="#2B2A29"/>
<path fill-rule="evenodd" clip-rule="evenodd" d="M112.414 6.64565H113.034C113.462 6.64565 113.567 6.51432 113.567 6.20593V6.01716C113.567 5.76035 113.475 5.58318 112.985 5.58318H112.414V6.64565ZM112.414 5.22872H112.867C113.195 5.22872 113.475 5.21768 113.475 4.96043V4.73156C113.475 4.45144 113.356 4.35502 113.016 4.35502L112.414 4.35491V5.22872ZM112 4.00011H113.053C113.635 4.00011 113.907 4.22369 113.907 4.69146V4.89172C113.907 5.06889 113.815 5.34901 113.431 5.38855C113.852 5.42335 114 5.64592 114 5.99452V6.19433C114 6.7432 113.722 7 113.183 7H112V4V4.00011Z" fill="#2B2A29"/>
<path fill-rule="evenodd" clip-rule="evenodd" d="M114.408 6.45277C114.408 7.23386 114.488 7.50643 115.006 7.50643C115.518 7.50643 115.594 7.24054 115.594 6.46018V5.53968C115.594 4.75917 115.524 4.49343 115.006 4.49343C114.495 4.49343 114.408 4.75162 114.408 5.53213L114.408 6.45262V6.45277ZM116 6.44522C116 7.58716 115.756 8 115.006 8C114.256 7.99985 114 7.58745 114 6.45277V5.53982C114 4.39759 114.261 4 115.012 4C115.762 3.99985 116 4.39759 116 5.53227V6.44522H116Z" fill="#2B2A29"/>
<path fill-rule="evenodd" clip-rule="evenodd" d="M118.025 4.3736V5.38341C118.025 6.12941 117.955 6.46649 117.724 6.78507L119.225 6.78495V4.3736H118.025ZM119.693 4V6.78484H120V8H119.56V7.15784H117.439V8H117V6.78484H117.257C117.509 6.4065 117.578 6.23754 117.578 5.33622V4H119.693Z" fill="#2B2A29"/>
<path fill-rule="evenodd" clip-rule="evenodd" d="M124.22 4V5.22872H124.391L125.314 4H125.795L124.774 5.3489L126 7H125.479L124.438 5.58307H124.22V7H123.779V5.58307H123.561L122.52 7H122L123.225 5.3489L122.204 4H122.686L123.608 5.22872H123.779V4H124.22Z" fill="#2B2A29"/>
<path fill-rule="evenodd" clip-rule="evenodd" d="M127.61 5.6496V5.37022C127.61 4.68569 127.487 4.45669 127.008 4.45669C126.536 4.45669 126.407 4.68583 126.407 5.37036V5.6496H127.61H127.61ZM126.407 6.10659V6.46003C126.407 7.24795 126.466 7.50643 126.997 7.50643C127.469 7.50643 127.633 7.36644 127.633 6.85109V6.73274H128V6.85094C128 7.683 127.684 8 126.997 8C126.244 7.99985 126 7.58005 126 6.44522V5.53198C126 4.39091 126.249 4 127.003 4C127.755 3.99985 128 4.39759 128 5.53227V6.10673H126.407V6.10659Z" fill="#2B2A29"/>
<path fill-rule="evenodd" clip-rule="evenodd" d="M131 4V7H130.498V4.35491H129.054V6.13159C129.054 6.61141 128.882 7 128.262 7H128V6.62876H128.075C128.433 6.62876 128.554 6.56017 128.554 6.11977V4H131Z" fill="#2B2A29"/>
<path fill-rule="evenodd" clip-rule="evenodd" d="M133.608 5.6496V5.37022C133.608 4.68569 133.486 4.45669 133.008 4.45669C132.537 4.45669 132.408 4.68583 132.408 5.37036V5.6496H133.608ZM132.408 6.10659V6.46003C132.408 7.24795 132.467 7.50643 132.997 7.50643C133.469 7.50643 133.633 7.36644 133.633 6.85109L133.633 6.73274H134V6.85094C134 7.683 133.685 8 132.997 8C132.245 7.99985 132 7.58005 132 6.44522V5.53198C132 4.39091 132.251 4 133.003 4C133.754 3.99985 134 4.39759 134 5.53227V6.10673H132.408L132.408 6.10659Z" fill="#2B2A29"/>
<path fill-rule="evenodd" clip-rule="evenodd" d="M135.07 5.119V4.99441C135.07 4.27997 135.336 4.00015 135.879 4.00015L136.179 4C136.794 4 136.958 4.4275 136.958 4.89204V5.11203C136.958 5.4874 136.864 5.79002 136.563 5.88586C136.864 5.95905 137 6.25441 137 6.59275L137 7.10797C137 7.77826 136.67 8 136.191 8L135.89 7.99985C135.206 7.99985 135 7.58005 135 6.76962H135.412C135.412 7.40303 135.595 7.54302 135.955 7.54302H136.12C136.481 7.54302 136.587 7.41 136.587 7.05032V6.68859C136.587 6.3276 136.481 6.10659 136.191 6.10659H135.731V5.6496H136.174C136.357 5.6496 136.545 5.56945 136.545 5.15603V4.94242C136.545 4.61076 136.428 4.45655 136.15 4.45655H135.95C135.601 4.45655 135.483 4.58912 135.483 4.99441L135.483 5.11871H135.07L135.07 5.119Z" fill="#2B2A29"/>
<path fill-rule="evenodd" clip-rule="evenodd" d="M137.406 6.45277C137.406 7.23386 137.489 7.50643 138.005 7.50643C138.518 7.50643 138.592 7.24054 138.592 6.46018V5.53968C138.592 4.75917 138.523 4.49343 138.005 4.49343C137.493 4.49343 137.406 4.75162 137.406 5.53213L137.406 6.45262V6.45277ZM139 6.44522C139 7.58716 138.756 8 138.005 8C137.255 7.99985 137 7.58745 137 6.45277V5.53982C137 4.39759 137.261 4 138.012 4C138.762 3.99985 139 4.39759 139 5.53227V6.44522Z" fill="#2B2A29"/>
<path fill-rule="evenodd" clip-rule="evenodd" d="M140.393 5.83356V6.45826C140.393 7.26777 140.522 7.52412 141.014 7.52412C141.52 7.52412 141.607 7.30376 141.607 6.4584V5.83356C141.607 5.18016 141.449 4.88923 141.009 4.88923C140.557 4.88895 140.393 5.08047 140.393 5.83356H140.393ZM142 6.63579C142 7.52412 141.789 8 141.014 8C140.17 7.99986 140 7.52412 140 6.30888V5.06619C140 3.9806 140.34 3.29107 140.933 3.29107C141.408 3.29107 141.484 3.26307 141.484 3.00014L141.831 3C141.831 3.5967 141.607 3.73167 141.056 3.73167C140.616 3.73153 140.381 3.95861 140.364 4.96007C140.487 4.57716 140.64 4.41349 141.021 4.41349C141.848 4.41335 142 4.78968 142 5.96167V6.63593L142 6.63579Z" fill="#2B2A29"/>
<path fill-rule="evenodd" clip-rule="evenodd" d="M144.61 5.6496V5.37022C144.61 4.68569 144.487 4.45669 144.009 4.45669C143.536 4.45669 143.408 4.68583 143.408 5.37036V5.6496H144.61ZM143.408 6.10659V6.46003C143.408 7.24795 143.466 7.50643 143.997 7.50643C144.469 7.50643 144.633 7.36644 144.633 6.85109L144.633 6.73274H145V6.85094C145 7.683 144.685 8 143.997 8C143.245 7.99985 143 7.58005 143 6.44522V5.53198C143 4.39091 143.251 4 144.003 4C144.755 3.99985 145 4.39759 145 5.53227L145 6.10673H143.408V6.10659Z" fill="#2B2A29"/>
<path fill-rule="evenodd" clip-rule="evenodd" d="M148 4V4.35491H147.188V7H146.813V4.35491H146V4H148Z" fill="#2B2A29"/>
<path fill-rule="evenodd" clip-rule="evenodd" d="M149.407 6.45277C149.407 7.23386 149.488 7.50643 150.005 7.50643C150.517 7.50643 150.593 7.24054 150.593 6.46018V5.53968C150.593 4.75917 150.523 4.49343 150.005 4.49343C149.494 4.49343 149.407 4.75162 149.407 5.53213V6.45262V6.45277ZM151 6.44522C151 7.58716 150.756 8 150.005 8C149.257 7.99985 149 7.58745 149 6.45277L149 5.53982C149 4.39759 149.262 4 150.012 4C150.761 3.99985 151 4.39759 151 5.53227V6.44522Z" fill="#2B2A29"/>
<path fill-rule="evenodd" clip-rule="evenodd" d="M151.41 5.22872H152.591V4H153V7H152.591V5.58307H151.41V7H151V4H151.41V5.22872Z" fill="#2B2A29"/>
<path fill-rule="evenodd" clip-rule="evenodd" d="M154.41 5.22872H155.591V4H156V7H155.591V5.58307H154.41V7H154V4H154.41V5.22872Z" fill="#2B2A29"/>
<path fill-rule="evenodd" clip-rule="evenodd" d="M160 7H159.571V4.00011H160V7ZM157.428 6.64556H158.065C158.499 6.64556 158.608 6.50848 158.608 6.06867C158.608 5.70848 158.499 5.58312 158.008 5.58312H157.428V6.64556ZM157.428 5.22868H158.168C158.819 5.22868 159.055 5.51982 159.055 5.99444L159.055 6.19425C159.055 6.74309 158.767 6.99989 158.206 6.99989H157V4H157.428V5.22856V5.22868Z" fill="#2B2A29"/>
<path fill-rule="evenodd" clip-rule="evenodd" d="M161.708 4L162.507 5.09728L163.3 4H163.852L162.773 5.41164L164 7H163.394L162.476 5.78919L161.553 7H161L162.205 5.44002L161.11 4H161.708Z" fill="#2B2A29"/>
<path fill-rule="evenodd" clip-rule="evenodd" d="M165.397 5.22872H165.551L166.388 4H166.821L165.902 5.35476L167 7H166.531L165.594 5.58307H165.397V7H165V4H165.397V5.22872Z" fill="#2B2A29"/>
<path fill-rule="evenodd" clip-rule="evenodd" d="M168.408 6.45277C168.408 7.23386 168.489 7.50643 169.006 7.50643C169.518 7.50643 169.594 7.24054 169.594 6.46018V5.53968C169.594 4.75917 169.524 4.49343 169.006 4.49343C168.495 4.49343 168.408 4.75162 168.408 5.53213V6.45262V6.45277ZM170 6.44522C170 7.58716 169.757 8 169.006 8C168.257 7.99985 168 7.58745 168 6.45277L168 5.53982C168 4.39759 168.261 4 169.012 4C169.762 3.99985 170 4.39759 170 5.53227L170 6.44522Z" fill="#2B2A29"/>
<path fill-rule="evenodd" clip-rule="evenodd" d="M171.41 5.22872H172.591V4H173V7H172.591V5.58307H171.41V7H171V4H171.41V5.22872Z" fill="#2B2A29"/>
<path fill-rule="evenodd" clip-rule="evenodd" d="M175.531 5.33362V5.26712C175.531 4.69934 175.382 4.49357 174.985 4.49357C174.48 4.49357 174.415 4.75931 174.415 5.53227L174.415 6.45277C174.415 7.22559 174.487 7.50643 175.002 7.50643C175.478 7.50643 175.585 7.28483 175.585 6.65926V6.50417H176V6.66609C176 7.60894 175.698 8 175.021 8C174.255 7.99985 174 7.59413 174 6.45277V5.53982C174 4.39759 174.26 4 175.027 4C175.674 3.99985 175.947 4.33166 175.947 5.14877V5.33362H175.531Z" fill="#2B2A29"/>
<path fill-rule="evenodd" clip-rule="evenodd" d="M178 4V4.35491H177.188V7H176.812V4.35491H176V4H178Z" fill="#2B2A29"/>
<path fill-rule="evenodd" clip-rule="evenodd" d="M179.403 6.15713C179.403 6.93305 179.522 7.30395 180.039 7.30395C180.465 7.30395 180.579 6.93955 180.579 6.17745L180.579 5.55915C180.579 4.78959 180.465 4.42574 180.039 4.42574C179.522 4.42574 179.402 4.79704 179.402 5.57946L179.403 6.157V6.15713ZM179.379 4.48789C179.582 4.15072 179.823 4 180.165 4C180.807 3.99986 181 4.51538 181 5.64121L181 6.19789C181 7.22866 180.795 7.73023 180.153 7.73023C179.828 7.73009 179.576 7.57803 179.402 7.26996L179.403 9H179V4.06134H179.379V4.48803V4.48789Z" fill="#2B2A29"/>
<path fill-rule="evenodd" clip-rule="evenodd" d="M181.39 4.00014L182.011 7.19481L182.632 4.00014H183L182.259 7.64597C182.077 8.52762 181.918 9 181.457 9C181.374 9 181.286 8.97892 181.21 8.95784V8.52762L181.341 8.54104C181.61 8.54104 181.753 8.35337 181.836 7.93684L181.891 7.64583H181.742L181 4H181.39L181.39 4.00014Z" fill="#2B2A29"/>
<path fill-rule="evenodd" clip-rule="evenodd" d="M184.398 5.22872H184.552L185.389 4H185.823L184.902 5.35476L186 7H185.531L184.593 5.58307H184.398V7H184V4H184.398V5.22872Z" fill="#2B2A29"/>
<path fill-rule="evenodd" clip-rule="evenodd" d="M187.361 6.78484H188.396V4H188.757V6.78484H189V8H188.661V7.15796H187V4H187.361V6.78484Z" fill="#2B2A29"/>
<path fill-rule="evenodd" clip-rule="evenodd" d="M190.362 6.50306L191.501 4H192V7H191.639V4.46878L190.493 7H190V4H190.362V6.50306Z" fill="#2B2A29"/>
<path fill-rule="evenodd" clip-rule="evenodd" d="M193.663 3C193.663 3.24506 193.796 3.28656 194.031 3.28656C194.261 3.28644 194.341 3.25072 194.341 3.00012L194.575 3C194.575 3.44203 194.42 3.5559 194.008 3.5559C193.59 3.55567 193.435 3.44227 193.435 3.00012L193.663 3ZM193.361 6.47993L194.501 3.86038H195V7H194.639V4.35098L193.492 7H193V3.86038H193.361V6.47993Z" fill="#2B2A29"/>
<defs>
<radialGradient id="paint0_radial" cx="0" cy="0" r="1" gradientUnits="userSpaceOnUse" gradientTransform="translate(25.3041 15.7637) rotate(143.384) scale(5.29598)">
<stop stop-color="#BE3E21"/>
<stop offset="1" stop-color="#74221B"/>
</radialGradient>
</defs>
</svg>
